<svg xmlns="http://www.w3.org/2000/svg" width="72" height="21" viewBox="0 0 72 21" fill="none"><g id="Company logo" clip-path="url(#clip0_1104_506)"><path id="Vector" d="M61.91 9.88101C62.8189 9.88101 63.1692 10.4487 63.2181 10.943C63.2188 10.9504 63.2179 10.958 63.2156 10.9651C63.2133 10.9722 63.2095 10.9787 63.2046 10.9842C63.1996 10.9898 63.1936 10.9942 63.1869 10.9972C63.1801 11.0002 63.1729 11.0017 63.1655 11.0017L60.6697 11.0017C60.6622 11.0017 60.6549 11.0001 60.6481 10.9969C60.6413 10.9938 60.6352 10.9892 60.6303 10.9835C60.6253 10.9778 60.6217 10.9711 60.6195 10.9638C60.6173 10.9565 60.6166 10.9489 60.6175 10.9413C60.6849 10.4583 61.1042 9.88101 61.91 9.88101ZM63.2781 13.0238C63.2615 13.0237 63.2451 13.0276 63.2303 13.0353C63.2156 13.0429 63.2028 13.0541 63.193 13.0678C62.968 13.3914 62.6016 13.591 62.0546 13.591C61.3009 13.591 60.6467 13.0854 60.5761 12.3689C60.5754 12.3615 60.5762 12.354 60.5785 12.3469C60.5808 12.3398 60.5846 12.3333 60.5895 12.3278C60.5944 12.3223 60.6003 12.3179 60.607 12.3148C60.6137 12.3118 60.6209 12.3102 60.6282 12.3102L65.1127 12.3102C65.1254 12.2699 65.1517 11.963 65.1517 11.6826C65.1517 9.5477 63.9048 8.27987 61.8837 8.27987C60.1908 8.27987 58.6289 9.64078 58.6289 11.7761C58.6289 14.0048 60.2303 15.3125 62.0283 15.3125C63.6534 15.3125 64.6831 14.3842 65.017 13.2623C65.019 13.2556 65.0301 13.2137 65.0424 13.1525C65.0456 13.1369 65.0453 13.1208 65.0416 13.1054C65.038 13.0899 65.0309 13.0755 65.0211 13.0632C65.0113 13.0508 64.9989 13.0409 64.9848 13.0341C64.9707 13.0273 64.9553 13.0237 64.9398 13.0238L63.2781 13.0238ZM67.2434 11.7421L65.1172 8.64798C65.1062 8.63192 65.0997 8.6131 65.0985 8.59356C65.0973 8.57402 65.1014 8.55451 65.1103 8.53716C65.1192 8.51982 65.1326 8.5053 65.149 8.49519C65.1654 8.48509 65.1842 8.47978 65.2034 8.47985L67.2939 8.47985C67.3296 8.47985 67.3625 8.49788 67.3822 8.52807L68.4747 10.2261C68.4952 10.2583 68.542 10.2579 68.5625 10.2252L69.63 8.52933C69.6394 8.51417 69.6525 8.50169 69.6679 8.49304C69.6833 8.48439 69.7006 8.47986 69.7183 8.47985L71.6888 8.47985C71.7742 8.47985 71.8239 8.57754 71.775 8.64839L69.6772 11.6612C69.6647 11.6791 69.6579 11.7005 69.6579 11.7225C69.6578 11.7445 69.6644 11.766 69.6768 11.784C70.3635 12.7818 71.1483 13.9348 71.8527 14.944C71.9019 15.0148 71.8527 15.1121 71.7672 15.1121L69.6911 15.1121C69.6738 15.1121 69.6566 15.1078 69.6413 15.0995C69.626 15.0911 69.6129 15.079 69.6033 15.0643L68.4705 13.311C68.4657 13.3036 68.4592 13.2976 68.4516 13.2934C68.444 13.2892 68.4355 13.2871 68.4268 13.2871C68.4182 13.2871 68.4096 13.2892 68.402 13.2934C68.3944 13.2976 68.3879 13.3036 68.3831 13.311C68.0438 13.8258 67.6003 14.5427 67.2639 15.0643C67.2543 15.0791 67.2412 15.0912 67.2259 15.0995C67.2105 15.1079 67.1934 15.1122 67.176 15.1121L65.2408 15.1121C65.2217 15.1122 65.2029 15.1069 65.1865 15.0969C65.1702 15.0869 65.1568 15.0724 65.1479 15.0552C65.139 15.0379 65.1349 15.0185 65.1361 14.999C65.1373 14.9796 65.1436 14.9608 65.1546 14.9448L67.2438 11.8637C67.2559 11.8458 67.2625 11.8246 67.2625 11.8029C67.2625 11.7811 67.2559 11.7599 67.2438 11.7421L67.2434 11.7421ZM55.9779 15.0056L55.9779 5.55763C55.9779 5.49852 56.0251 5.45072 56.083 5.45072L57.8679 5.45072C57.9258 5.45072 57.973 5.49852 57.973 5.55763L57.973 15.0056C57.973 15.0643 57.9258 15.1121 57.8679 15.1121L56.083 15.1121C56.0692 15.1121 56.0556 15.1094 56.0429 15.1041C56.0302 15.0988 56.0186 15.091 56.0088 15.0811C55.9991 15.0712 55.9913 15.0594 55.986 15.0465C55.9807 15.0335 55.9779 15.0196 55.9779 15.0056ZM53.0381 15.0056L53.0381 5.55763C53.0381 5.49852 53.0853 5.45072 53.1432 5.45072L54.9281 5.45072C54.986 5.45072 55.0328 5.49852 55.0328 5.55763L55.0328 15.0056C55.0328 15.0643 54.986 15.1121 54.9281 15.1121L53.1432 15.1121C53.1295 15.1121 53.1158 15.1094 53.1031 15.1041C53.0904 15.0988 53.0788 15.091 53.069 15.0811C53.0593 15.0712 53.0515 15.0594 53.0462 15.0465C53.0409 15.0335 53.0381 15.0196 53.0381 15.0056ZM48.6239 13.5508C49.4247 13.5508 50.1069 12.9106 50.1069 11.7895C50.1069 10.642 49.4375 10.0412 48.6239 10.0412C47.7708 10.0412 47.1277 10.642 47.1277 11.7895C47.1277 12.8837 47.7971 13.5512 48.6239 13.5512L48.6239 13.5508ZM50.12 14.2581C49.8313 14.8987 49.1754 15.2991 48.3614 15.2991C46.4451 15.2991 45.1198 13.8178 45.1198 11.7761C45.1198 9.80135 46.3666 8.27945 48.2957 8.27945C49.4637 8.27945 49.9755 8.93349 50.1069 9.24039L50.1069 8.58634C50.1069 8.52765 50.1537 8.47985 50.212 8.47985L51.9312 8.47985C51.9887 8.47985 52.036 8.52765 52.036 8.58676L52.036 15.0056C52.036 15.0643 51.9891 15.1121 51.9312 15.1121L50.2133 15.1121C50.1994 15.1121 50.1857 15.1093 50.1729 15.1038C50.1601 15.0984 50.1485 15.0904 50.1388 15.0803C50.129 15.0703 50.1213 15.0583 50.1161 15.0452C50.111 15.0321 50.1084 15.0181 50.1085 15.0039C50.1118 14.7628 50.12 14.2056 50.12 14.2581ZM40.8628 8.55322L42.0584 12.2502C42.0748 12.3005 42.1446 12.2989 42.1586 12.2481L43.18 8.55783C43.1862 8.53536 43.1994 8.51557 43.2177 8.50148C43.2359 8.4874 43.2582 8.47981 43.2811 8.47985L45.0142 8.47985C45.0853 8.47985 45.1358 8.54945 45.1148 8.61821L43.1587 15.037C43.1521 15.0589 43.1388 15.078 43.1207 15.0916C43.1027 15.1052 43.0809 15.1125 43.0585 15.1125L41.2296 15.1125C41.2076 15.1125 41.1863 15.1054 41.1684 15.0923C41.1506 15.0792 41.1372 15.0608 41.1302 15.0395L39.7872 10.9803C39.7708 10.9317 39.703 10.9321 39.6874 10.9803L38.3691 15.0387C38.3622 15.0601 38.3488 15.0786 38.331 15.0918C38.3132 15.105 38.2917 15.1121 38.2697 15.1121L36.4014 15.1121C36.3791 15.1121 36.3574 15.1049 36.3394 15.0915C36.3214 15.078 36.308 15.0591 36.3012 15.0375L34.3196 8.61863C34.3147 8.6026 34.3135 8.58562 34.3162 8.56907C34.319 8.55251 34.3255 8.53684 34.3352 8.52333C34.345 8.50981 34.3577 8.49883 34.3724 8.49128C34.3871 8.48373 34.4033 8.47981 34.4198 8.47985L36.2712 8.47985C36.318 8.47985 36.3595 8.51172 36.3722 8.55783L37.3937 12.2364C37.4076 12.2867 37.4774 12.2884 37.4939 12.2385L38.7021 8.55322C38.7091 8.53185 38.7225 8.51326 38.7404 8.50009C38.7584 8.48692 38.7799 8.47984 38.8019 8.47985L40.763 8.47985C40.8082 8.47985 40.8489 8.5092 40.8628 8.55322ZM33.7783 10.3506C33.7782 10.3662 33.7749 10.3816 33.7684 10.3957C33.762 10.4098 33.7526 10.4224 33.7409 10.4324C33.7292 10.4424 33.7155 10.4497 33.7007 10.4538C33.6859 10.4578 33.6705 10.4585 33.6555 10.4558C33.4879 10.4269 33.3182 10.4131 33.1482 10.4147C32.3474 10.4147 31.6258 10.8952 31.6258 12.2163L31.6258 15.0056C31.6258 15.0643 31.579 15.1121 31.521 15.1121L29.7361 15.1121C29.7224 15.1121 29.7088 15.1094 29.696 15.1041C29.6833 15.0988 29.6717 15.091 29.662 15.0811C29.6522 15.0712 29.6444 15.0594 29.6391 15.0465C29.6338 15.0335 29.6311 15.0196 29.631 15.0056L29.631 8.58676C29.631 8.52807 29.6778 8.47985 29.7361 8.47985L31.4553 8.47985C31.5132 8.47985 31.5601 8.52765 31.5601 8.58676L31.5601 9.37413C31.9014 8.62659 32.7285 8.41319 33.2534 8.41319C33.4127 8.41319 33.5721 8.4308 33.6965 8.45847C33.7446 8.46937 33.7783 8.51297 33.7783 8.56287L33.7783 10.3506ZM26.6518 15.0056L26.6518 8.58676C26.6518 8.52807 26.699 8.47985 26.7569 8.47985L28.5418 8.47985C28.5997 8.47985 28.647 8.52765 28.647 8.58676L28.647 15.0056C28.647 15.0643 28.5997 15.1121 28.5418 15.1121L26.7569 15.1121C26.7432 15.1121 26.7295 15.1094 26.7168 15.1041C26.7041 15.0988 26.6925 15.091 26.6827 15.0811C26.673 15.0712 26.6652 15.0594 26.6599 15.0465C26.6546 15.0335 26.6518 15.0196 26.6518 15.0056ZM27.6362 5.26373C28.2925 5.26373 28.8174 5.79745 28.8174 6.45149C28.8174 7.10553 28.2925 7.63924 27.6362 7.63924C27.0062 7.63924 26.4813 7.10553 26.4813 6.45149C26.4813 5.79745 27.0062 5.26373 27.6362 5.26373ZM20.2954 11.2687L22.4047 11.2687C22.4409 11.2687 22.4663 11.2327 22.454 11.1979L21.4125 8.14319C21.409 8.13262 21.4023 8.12343 21.3934 8.11691C21.3845 8.11039 21.3739 8.10686 21.3629 8.10682C21.352 8.10677 21.3413 8.11021 21.3324 8.11665C21.3234 8.1231 21.3167 8.13223 21.3131 8.14277L20.2465 11.1979C20.2342 11.2323 20.2596 11.2692 20.2958 11.2692L20.2954 11.2687ZM23.0606 13.1906L19.6128 13.1906C19.5912 13.1907 19.5701 13.1975 19.5524 13.2103C19.5348 13.2231 19.5214 13.2411 19.5142 13.2619L18.8941 15.0412C18.8868 15.0621 18.8734 15.0802 18.8557 15.0929C18.838 15.1057 18.8168 15.1125 18.7951 15.1125L16.8426 15.1125C16.8256 15.1126 16.8089 15.1085 16.7938 15.1005C16.7787 15.0925 16.7658 15.0809 16.7561 15.0666C16.7464 15.0524 16.7402 15.036 16.7381 15.0188C16.736 15.0016 16.738 14.9841 16.744 14.9679L20.1693 5.71988C20.1768 5.69953 20.1902 5.682 20.2078 5.66964C20.2253 5.65728 20.2461 5.65067 20.2674 5.65071L22.5238 5.65071C22.5674 5.65071 22.6068 5.67838 22.622 5.7203L26.0086 14.9683C26.0145 14.9845 26.0164 15.0018 26.0142 15.0189C26.012 15.036 26.0058 15.0523 25.9961 15.0665C25.9865 15.0806 25.9736 15.0921 25.9586 15.1001C25.9436 15.108 25.9269 15.1121 25.9101 15.1121L23.8783 15.1121C23.8566 15.1121 23.8355 15.1052 23.8178 15.0925C23.8001 15.0797 23.7866 15.0617 23.7793 15.0408L23.1592 13.2619C23.1519 13.2411 23.1386 13.2231 23.1209 13.2104C23.1033 13.1976 23.0822 13.1907 23.0606 13.1906Z" fill="white"></path><path id="Vector_2" fill-rule="evenodd" clip-rule="evenodd" d="M14.2161 9.20015C14.4716 9.454 14.6488 9.77855 14.7259 10.1339C14.803 10.4892 14.7767 10.8598 14.6502 11.2L13.6863 13.8732C13.4333 14.575 12.8567 15.118 12.1441 15.2597C11.7877 15.3325 11.4186 15.305 11.0763 15.1802C10.7339 15.0554 10.4313 14.838 10.2007 14.5511L4.4205 7.48162C4.40613 7.46422 4.38753 7.45098 4.36658 7.44322C4.34562 7.43546 4.32304 7.43346 4.30108 7.4374C4.27913 7.44135 4.25857 7.45111 4.24147 7.46572C4.22437 7.48032 4.21133 7.49925 4.20365 7.52061L2.32305 12.7131C2.28403 12.8204 2.38753 12.9244 2.49021 12.8816L4.79793 11.9195C4.92804 11.8656 5.06763 11.8398 5.20797 11.8436C5.34831 11.8475 5.48636 11.8808 5.61346 11.9417C5.74056 12.0026 5.85397 12.0896 5.94657 12.1973C6.03918 12.305 6.10898 12.4311 6.1516 12.5676C6.32204 13.1013 6.03537 13.6778 5.53062 13.8883L2.51608 15.1448C1.95794 15.3775 1.31683 15.3364 0.814136 14.9939C0.471562 14.7602 0.21616 14.4154 0.0891773 14.0152C-0.0378051 13.6151 -0.0289536 13.1829 0.114302 12.7886L2.33619 6.65568C2.59945 5.92869 3.19907 5.41552 3.94039 5.28304C4.3014 5.21699 4.67312 5.25035 5.01731 5.37968C5.36149 5.509 5.66569 5.72962 5.89861 6.01883L9.21625 10.0772L12.2678 8.80479C12.9458 8.52222 13.6925 8.67357 14.2161 9.20015ZM12.4563 11.2386C12.4949 11.1313 12.3914 11.0273 12.2887 11.0705L10.6028 11.7731L11.6139 13.0104C11.6283 13.028 11.6469 13.0414 11.668 13.0493C11.689 13.0572 11.7117 13.0592 11.7338 13.0553C11.7559 13.0513 11.7766 13.0415 11.7938 13.0267C11.8109 13.012 11.824 12.9929 11.8316 12.9714L12.4559 11.2386L12.4563 11.2386Z" fill="white"></path></g><defs><clipPath id="clip0_1104_506"><rect width="72" height="21" fill="white"></rect></clipPath></defs></svg>