<svg xmlns="http://www.w3.org/2000/svg" width="54" height="11" viewBox="0 0 54 11" fill="none"><path d="M0.736328 10.6837C1.08443 10.5111 1.06033 9.91229 1.06129 9.839C1.06129 9.69243 1.06129 2.43329 1.06129 2.13822C1.06579 2.02825 1.04379 1.9188 0.997133 1.81912C0.950479 1.71943 0.880544 1.63243 0.793221 1.56543H7.08036C7.08036 1.56543 6.81036 1.72068 6.81036 2.144C6.81036 2.39279 6.81036 9.55647 6.81036 9.99907C6.81036 10.109 6.85761 10.5256 7.13533 10.6741L0.736328 10.6837Z" fill="white"></path><path d="M15.8984 10.6837C15.5763 10.4639 15.5898 10.002 15.5879 9.89687C15.5879 9.82166 15.5879 8.49287 15.5879 6.94712C15.5879 6.94712 17.3439 9.71462 17.5078 10.1177C17.6881 10.5603 17.4837 10.6837 17.4837 10.6837H24.7158C24.7158 10.6837 24.6425 10.6355 24.5336 10.5526C24.2866 10.3774 24.0689 10.1642 23.8885 9.92098C23.632 9.57769 20.986 5.28084 20.986 5.28084C20.986 5.28084 22.9782 2.50176 23.2897 2.09869C23.4527 1.89584 23.6432 1.71669 23.8557 1.56641H23.4189H17.6611C17.6611 1.56641 18.0054 1.80844 17.7016 2.25008C17.3979 2.69173 15.5898 5.19501 15.5898 5.19501C15.5898 3.65891 15.5898 2.24816 15.5898 2.13919C15.5858 2.02859 15.6087 1.91867 15.6566 1.81888C15.7044 1.7191 15.7758 1.63245 15.8647 1.56641H9.74047C9.82756 1.63356 9.89727 1.72062 9.94374 1.82029C9.99022 1.91995 10.0121 2.02932 10.0076 2.13919C10.0124 2.43426 10.0076 9.69341 10.0076 9.83998C10.0076 9.91809 10.0307 10.515 9.68262 10.6847L15.8984 10.6837Z" fill="white"></path><path d="M25.9857 1.56543C26.0733 1.63228 26.1436 1.7192 26.1906 1.81889C26.2376 1.91857 26.2599 2.02809 26.2557 2.13822C26.2557 2.43329 26.2557 9.69243 26.2557 9.839C26.2557 9.91711 26.2788 10.514 25.9307 10.6837H36.4771V7.58643C36.3841 7.68136 36.2728 7.75658 36.1501 7.80761C36.0273 7.85863 35.8955 7.88442 35.7626 7.88343H31.6499V7.15636H34.6141C34.7935 7.15636 35.2891 7.21325 35.4164 7.38104V4.60004C35.2833 4.78614 34.7829 4.82954 34.618 4.82954H31.648V4.1015C31.648 4.1015 35.0876 4.1015 35.5138 4.1015C35.8751 4.11089 36.2194 4.25701 36.4771 4.51036V1.56543H25.9857Z" fill="white"></path><path d="M46.2379 10.6838C46.2379 10.6838 46.5156 10.3723 46.4182 9.99528C46.2954 9.61435 46.1475 9.24197 45.9756 8.88056H43.2708C43.2708 8.88056 42.9313 9.59895 42.8281 9.99528C42.7317 10.3723 43.0085 10.6838 43.0085 10.6838H37.5381C37.7521 10.4853 37.9236 10.2455 38.0424 9.97888C38.2353 9.53628 40.8388 2.58571 40.942 2.33499C41.1349 1.85285 40.8157 1.57031 40.8157 1.57031H49.5164C49.4218 1.67325 49.3582 1.80077 49.3328 1.93824C49.3073 2.07572 49.3212 2.21757 49.3728 2.34753C49.5357 2.83931 52.3148 9.72817 52.4401 9.97888C52.5718 10.258 52.7706 10.5002 53.0187 10.6838H46.2379ZM45.3488 7.22585C45.3488 7.22585 44.6979 5.61742 44.6738 5.55667C44.6182 5.4062 44.5857 5.2482 44.5774 5.08803H44.5677C44.5624 5.24771 44.5332 5.40569 44.4809 5.55667C44.4559 5.61742 43.8059 7.22585 43.8059 7.22585H45.3488Z" fill="white"></path><path d="M50.7364 2.44007C50.7326 2.13413 50.8198 1.83396 50.987 1.57772C51.1542 1.32147 51.3938 1.12072 51.6754 1.00098C51.9569 0.881245 52.2678 0.847927 52.5683 0.905262C52.8688 0.962598 53.1456 1.108 53.3633 1.32298C53.581 1.53797 53.7298 1.81283 53.7909 2.11263C53.8521 2.41243 53.8226 2.72363 53.7065 3.00667C53.5903 3.28972 53.3926 3.53183 53.1384 3.70223C52.8843 3.87263 52.5853 3.96362 52.2793 3.96365C52.0774 3.96698 51.8768 3.93 51.6894 3.85485C51.502 3.77971 51.3314 3.66792 51.1877 3.52603C51.0441 3.38414 50.9301 3.21501 50.8526 3.02854C50.7751 2.84207 50.7356 2.64201 50.7364 2.44007ZM52.2793 3.711C52.9668 3.711 53.5097 3.17197 53.5097 2.44007C53.5097 2.11272 53.3797 1.79878 53.1482 1.5673C52.9167 1.33583 52.6028 1.20579 52.2754 1.20579C51.9481 1.20579 51.6341 1.33583 51.4027 1.5673C51.1712 1.79878 51.0412 2.11272 51.0412 2.44007C51.0412 3.17197 51.584 3.711 52.2793 3.711ZM51.9582 3.32047H51.694V1.56836H52.3613C52.7749 1.56836 52.9803 1.72072 52.9803 2.06689C52.9803 2.38029 52.7875 2.51722 52.5262 2.54904L53.0237 3.32047H52.7267L52.2648 2.56061H51.9592L51.9582 3.32047ZM52.2754 2.33593C52.5011 2.33593 52.7017 2.31954 52.7017 2.04664C52.7017 1.82968 52.5088 1.78918 52.3159 1.78918H51.9543V2.33593H52.2754Z" fill="white"></path></svg>