<svg xmlns="http://www.w3.org/2000/svg" width="32" height="20" viewBox="0 0 32 20" fill="none"><g id="olx-white 1" clip-path="url(#clip0_1101_1452)"><g id="Clip path group"><mask id="mask0_1101_1452" style="mask-type:luminance" maskUnits="userSpaceOnUse" x="0" y="0" width="32" height="20"><g id="clip0_2717_669"><path id="Vector" d="M32 0H0V20H32V0Z" fill="white"></path></g></mask><g mask="url(#mask0_1101_1452)"><g id="Group"><path id="Vector_2" fill-rule="evenodd" clip-rule="evenodd" d="M20.9172 19.1912H16.6868V0.552155H20.9172V19.1912ZM15.176 9.89416C15.176 14.1371 11.8798 17.5704 7.81877 17.5704C3.75772 17.5704 0.456055 14.1313 0.456055 9.89416C0.456055 5.65706 3.7522 2.21796 7.81324 2.21796C11.8743 2.21796 15.176 5.65131 15.176 9.89416ZM10.0391 9.89416C10.0391 8.61182 9.04557 7.57556 7.81599 7.57556C6.58645 7.57556 5.59289 8.61182 5.59289 9.89416C5.59289 11.1766 6.58645 12.2128 7.81599 12.2128C9.04557 12.2128 10.0391 11.1766 10.0391 9.89416ZM31.6547 5.23442H28.8431L27.1924 6.95497L25.5417 5.23442H22.7301V8.21667L24.3588 9.91424L22.7301 11.6118V14.554H25.5858L27.1979 12.8736L28.81 14.554H31.6656V11.6118L30.0371 9.91424L31.6656 8.21667V5.23442H31.6547Z" fill="white"></path></g></g></g></g><defs><clipPath id="clip0_1101_1452"><rect width="32" height="20" fill="white"></rect></clipPath></defs></svg>