<svg xmlns="http://www.w3.org/2000/svg" width="51" height="19" viewBox="0 0 51 19" fill="none"><g id="ubs-white 1" clip-path="url(#clip0_1101_1445)"><g id="Clip path group"><mask id="mask0_1101_1445" style="mask-type:luminance" maskUnits="userSpaceOnUse" x="0" y="0" width="51" height="19"><g id="clip0_2717_723"><path id="Vector" d="M51 0H0V19H51V0Z" fill="white"></path></g></mask><g mask="url(#mask0_1101_1445)"><g id="Group"><path id="Vector_2" fill-rule="evenodd" clip-rule="evenodd" d="M29.7364 11.7083C29.7364 15.4833 27.6728 15.9362 25.6091 15.9362C22.0607 15.9362 21.3057 14.1243 21.3057 11.5322V4.22137H19.9971V3.51671H24.9548V4.22137H23.5455V11.3183C23.5455 13.8223 24.1998 15.068 25.9992 15.068C27.8363 15.068 28.7297 14.162 28.7297 11.5573V4.22137H27.4085V3.51671H30.9318V4.22137H29.7364V11.7083ZM33.1087 15.0932V4.22137H31.8252V3.51671H37.324C39.6645 3.51671 40.8221 4.83793 40.8221 6.38566C40.8221 8.03406 39.3247 8.96521 37.9909 9.24203C40.5831 9.48111 41.2877 11.1421 41.2877 12.3627C41.2877 14.8541 39.1612 15.7978 37.0724 15.7978H31.7371V15.0932H33.1087ZM38.5823 6.52408C38.5823 5.37903 37.9909 4.22137 36.6949 4.22137H35.2981V8.94004H36.5439C37.9154 8.94004 38.5823 7.78239 38.5823 6.52408ZM39.0228 12.3627C39.0228 10.7269 38.3181 9.63211 36.6697 9.63211H35.2981V15.0932H36.4055C38.1545 15.0932 39.0228 14.0614 39.0228 12.3627ZM46.7739 4.05779C45.4779 4.05779 44.6474 4.82536 44.6474 6.15918C44.6474 7.36715 45.956 7.94598 47.2269 8.3738C47.9819 8.63805 48.9382 8.99038 49.5926 9.61954C50.3098 10.299 50.6999 11.205 50.6747 12.3501C50.6244 14.4892 49.127 15.9363 46.4845 15.9488C45.4905 15.9488 43.9427 15.7223 43.0116 15.1813L42.9109 11.96H43.6911C43.754 14.1243 44.7732 15.2568 46.56 15.2568C47.9945 15.2568 48.7873 14.3005 48.7873 12.8408C48.7873 11.5825 47.7429 11.0414 46.1574 10.5129C45.6415 10.3368 44.6222 9.95927 43.905 9.25461C43.2633 8.61288 42.9613 7.80757 42.9613 6.95191C42.9613 4.44787 44.7481 3.36572 46.9627 3.36572C47.8435 3.36572 49.1648 3.68031 49.9323 4.12071L50.0078 6.91416H49.2277C49.0641 4.92602 48.1958 4.05779 46.7739 4.05779Z" fill="white"></path><path id="Vector_3" fill-rule="evenodd" clip-rule="evenodd" d="M13.8726 6.00168L13.5446 6.27498L13.8908 7.40461L12.8523 6.8398L12.5061 7.11312L13.6539 7.73253L12.4332 8.71637L12.1052 8.27915L12.5426 7.93294L12.2146 7.55033L11.7773 7.89653L11.4494 7.47744L11.8866 7.13131L11.5587 6.71228L9.31775 8.57064L11.4494 10.2832L11.8319 9.80951C12.1052 9.82779 12.3057 10.0282 12.415 10.2832L12.0324 10.757L12.2692 10.9391C12.7976 10.4654 13.49 10.1557 14.2005 10.1557C15.6944 10.1557 16.8605 11.3764 16.8605 12.8703C16.8605 13.3622 16.733 13.8907 16.4597 14.3279L16.8605 14.6376C16.8423 14.9292 16.569 15.2389 16.2957 15.3118L15.9131 15.0021C15.3847 15.5123 14.6924 15.7854 13.9636 15.7854C12.4696 15.7854 11.3036 14.6012 11.3036 13.0891C11.3036 12.5972 11.4494 12.087 11.668 11.6679L11.4494 11.4676L11.0668 11.9776C10.7935 11.9412 10.5566 11.759 10.4838 11.4676L10.8664 11.012L9.06264 9.518V11.8865L9.66386 11.9048C9.73675 11.9959 9.79146 12.1234 9.79146 12.2692C9.79146 12.3967 9.73675 12.5425 9.68207 12.6517H9.06264V12.9433C10.3745 13.1619 11.4676 14.2732 11.4676 15.6215C11.4676 17.0244 10.3927 18.1357 9.06264 18.3544V18.8282C8.93512 18.901 8.77112 18.9557 8.62542 18.9557C8.46142 18.9557 8.2792 18.901 8.13342 18.8282V18.3544C6.80347 18.1357 5.76494 17.0244 5.76494 15.6215C5.76494 14.2732 6.80347 13.1619 8.13342 12.9614V12.6517H7.51399C7.4411 12.5425 7.40469 12.3967 7.40469 12.2692C7.40469 12.1234 7.4411 11.9959 7.51399 11.8865H8.13342V9.518L6.31155 11.012L6.71236 11.4676C6.62126 11.759 6.38436 11.9412 6.11115 11.9776L5.72853 11.4676L5.49163 11.6679C5.74674 12.087 5.87425 12.5972 5.87425 13.0891C5.87425 14.6012 4.70822 15.7854 3.21427 15.7854C2.50366 15.7854 1.79312 15.5123 1.28301 15.0021L0.882201 15.3118C0.627092 15.239 0.353787 14.9292 0.317383 14.6377L0.699986 14.3279C0.463176 13.8907 0.317383 13.3622 0.317383 12.8703C0.317383 11.3764 1.48342 10.1557 2.97737 10.1557C3.70618 10.1557 4.3985 10.4654 4.92682 10.9391L5.14552 10.7751L4.7629 10.2832C4.85401 10.0282 5.09082 9.84601 5.36414 9.80951L5.74674 10.2832L7.87841 8.57065L5.63744 6.71229L5.30944 7.13132L5.74675 7.47745L5.41874 7.89654L4.98153 7.55034L4.65361 7.93294L5.07264 8.27916L4.74472 8.71638L3.54219 7.73254L4.67183 7.11313L4.34382 6.83981L3.30538 7.40462L3.6515 6.27499L3.32358 6.00169L2.94098 7.24062L1.72023 6.25679L2.04823 5.85598L2.46724 6.2021L2.81345 5.80129L2.37615 5.41868L2.70413 5.03606L3.14137 5.36406L3.45107 4.98144L2.50366 4.23443C2.59475 3.92472 2.79524 3.66962 3.08667 3.48742L8.13342 7.60503V4.85386H7.62331V5.38226H7.11317V4.85386H6.58477V5.38226H6.05644V3.83362L7.2589 4.34374V3.90652L6.14755 3.45101L7.2589 3.0137V2.59469L6.05644 3.0684V1.50155H6.58477V2.06636H7.11317V1.50155H7.62331V2.06636H8.13342V0.827418C8.27922 0.772738 8.44322 0.736328 8.60713 0.736328C8.75294 0.736328 8.91686 0.772738 9.06265 0.827418V7.60502L14.1094 3.48742C14.3827 3.66961 14.5831 3.92472 14.6924 4.23443L13.7268 4.98144L14.0547 5.36406L14.492 5.03606L14.8199 5.41868L14.3827 5.80128L14.7106 6.20209L15.1479 5.85598L15.4758 6.25679L14.2551 7.24061L13.8726 6.00168ZM3.56038 13.4533C3.56038 13.8907 3.88838 14.164 4.271 14.2004L3.63327 14.6923C3.19605 14.5283 2.79524 13.9999 2.79524 13.5444C2.79524 13.3988 2.83164 13.3077 2.86805 13.1983C2.81345 13.1983 2.77696 13.2166 2.74055 13.2166C2.15753 13.2166 1.66561 12.67 1.55631 12.1051L2.21223 11.595C2.19393 11.6679 2.19393 11.7226 2.19393 11.7773C2.19393 12.1417 2.54015 12.4695 2.90454 12.4695C3.28716 12.4695 3.65148 12.1417 3.65148 11.759C3.65148 11.2853 3.28716 10.9756 2.83164 10.9756C1.93891 10.9756 1.06439 11.832 1.06439 12.9614C1.06439 13.2894 1.13719 13.5991 1.28301 13.8724L1.68382 13.5627C1.95712 13.6902 2.17574 13.9635 2.24863 14.2732L1.84782 14.5829C2.23042 14.9109 2.70413 15.0568 3.19605 15.0568C4.21629 15.0568 5.03622 14.2368 5.03622 13.508C5.03622 13.0891 4.74471 12.7247 4.3074 12.7247C3.90659 12.7247 3.56038 13.0344 3.56038 13.4533ZM8.97154 15.0203C8.97154 15.4212 9.29946 15.749 9.68208 15.749C9.95538 15.749 10.0647 15.6398 10.2651 15.4757V16.2956C10.0647 16.405 9.86428 16.4595 9.64566 16.4595C9.20844 16.4595 8.84403 16.332 8.60713 15.9495C8.35211 16.332 7.98772 16.4595 7.5504 16.4595C7.35 16.4595 7.13139 16.405 6.93099 16.2956V15.4757C7.11319 15.6579 7.25891 15.749 7.514 15.749C7.91481 15.749 8.22454 15.4212 8.22454 15.0203C8.22454 14.6377 7.96951 14.2915 7.5504 14.2915C6.80348 14.2915 6.49376 15.0021 6.49376 15.6579C6.49376 16.6236 7.20429 17.4434 8.13343 17.6074V17.1155C8.27922 17.0425 8.44322 17.0244 8.58894 17.0244C8.75294 17.0244 8.91686 17.0425 9.06265 17.1155V17.6074C9.91898 17.4799 10.7024 16.5689 10.7024 15.6579C10.7024 14.9838 10.4291 14.2915 9.64566 14.2915C9.24485 14.2915 8.97154 14.6377 8.97154 15.0203ZM13.5082 11.759C13.5082 12.1234 13.8908 12.4695 14.2734 12.4695C14.6377 12.4695 14.9839 12.1417 14.9839 11.7773C14.9839 11.7226 14.9657 11.6679 14.9657 11.595L15.6033 12.1051C15.494 12.7247 14.9475 13.2711 14.3098 13.1983C14.3462 13.3077 14.3645 13.3988 14.3645 13.5444C14.3645 13.9999 13.9636 14.5283 13.5264 14.6924L12.8887 14.2004C13.2896 14.164 13.6175 13.8907 13.6175 13.4533C13.6175 13.0344 13.2531 12.7247 12.8523 12.7247C12.4332 12.7247 12.1235 13.0891 12.1235 13.5263C12.1235 14.0547 12.7611 15.0568 13.9819 15.0568C14.4738 15.0568 14.9475 14.911 15.3118 14.583L14.911 14.2733C15.0021 13.9635 15.1843 13.6902 15.4758 13.5627L15.8766 13.8724C16.0224 13.5991 16.1135 13.2894 16.1135 12.9614C16.1135 12.087 15.4394 10.9756 14.3645 10.9756C13.909 10.9756 13.5082 11.2853 13.5082 11.759Z" fill="white"></path></g></g></g></g><defs><clipPath id="clip0_1101_1445"><rect width="51" height="19" fill="white"></rect></clipPath></defs></svg>