<svg xmlns="http://www.w3.org/2000/svg" width="17" height="17" viewBox="0 0 17 17" fill="none"><g id="vw-white 1" clip-path="url(#clip0_1101_1458)"><g id="Clip path group"><mask id="mask0_1101_1458" style="mask-type:luminance" maskUnits="userSpaceOnUse" x="0" y="0" width="17" height="17"><g id="clip0_2717_729"><path id="Vector" d="M17 0H0V17H17V0Z" fill="white"></path></g></mask><g mask="url(#mask0_1101_1458)"><g id="Group"><g id="Mask group"><mask id="mask1_1101_1458" style="mask-type:luminance" maskUnits="userSpaceOnUse" x="0" y="0" width="17" height="17"><g id="Group_2"><path id="Vector_2" d="M16.78 0.575409H0.459961V16.8954H16.78V0.575409Z" fill="white"></path></g></mask><g mask="url(#mask1_1101_1458)"><g id="Group_3"><path id="Vector_3" d="M8.61997 15.9339C4.68548 15.9339 1.45072 12.6699 1.45072 8.73541C1.45072 7.91941 1.59624 7.13265 1.85872 6.37513L6.05568 14.5351C6.11348 14.6514 6.17196 14.7391 6.31748 14.7391C6.46368 14.7391 6.52148 14.6514 6.57996 14.5351L8.53225 10.1927C8.56149 10.1342 8.59073 10.1049 8.61997 10.1049C8.67845 10.1049 8.67845 10.1634 8.70769 10.1927L10.6892 14.5351C10.7477 14.6514 10.8055 14.7391 10.9517 14.7391C11.0972 14.7391 11.1557 14.6514 11.2135 14.5351L15.4105 6.37513C15.6723 7.10341 15.8185 7.89017 15.8185 8.73541C15.7892 12.6699 12.5545 15.9339 8.61997 15.9339ZM8.61997 6.87017C8.56149 6.87017 8.56149 6.8117 8.53225 6.78313L6.28824 1.94493C7.79534 1.402 9.44461 1.402 10.9517 1.94493L8.70769 6.78313C8.67845 6.8117 8.67845 6.87017 8.61997 6.87017ZM6.25968 12.1157C6.2012 12.1157 6.2012 12.0579 6.17196 12.0287L2.49996 4.97501C3.1412 3.92645 4.07348 3.05197 5.15196 2.43997L7.74549 8.03502C7.80397 8.15198 7.86245 8.18122 7.94949 8.18122H9.29045C9.37749 8.18122 9.43597 8.15198 9.49445 8.03502L12.0587 2.43997C13.1372 3.05197 14.0695 3.92645 14.7107 4.97501L11.068 12.0287C11.0387 12.0871 11.0095 12.1157 10.9803 12.1157C10.9225 12.1157 10.9225 12.0579 10.8932 12.0287L9.49445 8.93941C9.43597 8.82314 9.37749 8.79389 9.29045 8.79389H7.94949C7.86245 8.79389 7.80397 8.82314 7.74549 8.93941L6.34672 12.0287C6.31748 12.0579 6.31748 12.1157 6.25968 12.1157ZM8.61997 16.8954C13.1372 16.8954 16.78 13.2527 16.78 8.73541C16.78 4.21817 13.1372 0.575409 8.61997 0.575409C4.10272 0.575409 0.459961 4.21817 0.459961 8.73541C0.459961 13.2527 4.10272 16.8954 8.61997 16.8954Z" fill="white"></path></g></g></g></g></g></g></g><defs><clipPath id="clip0_1101_1458"><rect width="17" height="17" fill="white"></rect></clipPath></defs></svg>