<?xml version="1.0" standalone="no"?>
<!DOCTYPE svg PUBLIC "-//W3C//DTD SVG 20010904//EN"
 "http://www.w3.org/TR/2001/REC-SVG-20010904/DTD/svg10.dtd">
<svg version="1.0" xmlns="http://www.w3.org/2000/svg"
 width="150.000000pt" height="150.000000pt" viewBox="0 0 150.000000 150.000000"
 preserveAspectRatio="xMidYMid meet">
<metadata>
Created by potrace 1.14, written by Peter Selinger 2001-2017
</metadata>
<g transform="translate(0.000000,150.000000) scale(0.100000,-0.100000)"
fill="#000000" stroke="none">
<path d="M605 1485 c-206 -44 -372 -157 -484 -330 -87 -133 -121 -260 -116
-428 5 -155 38 -261 119 -387 106 -164 272 -278 461 -319 318 -69 630 61 801
335 43 69 84 169 99 239 15 70 14 231 -1 305 -41 196 -160 369 -326 477 -68
44 -161 87 -209 97 -13 3 -35 8 -49 11 -51 13 -236 13 -295 0z"/>
</g>
</svg>
