<svg xmlns="http://www.w3.org/2000/svg" width="1920" height="348" viewBox="0 0 1920 348" fill="none"><path d="M345.1 170.4L313.5 212.9L250.5 234.1H250.4L218.8 276.6L155.8 297.8H155.7L124.1 340.3L81.7 354.6H83L124.5 340.6H124.6L156.2 298.1L219.2 276.9H219.3L250.9 234.4L313.9 213.2H314L345.6 170.7L408.6 149.5H408.7L429.5 121.5V120.6L408.1 149.2L345.1 170.4ZM337.2 165.1L305.6 207.6L242.6 228.8H242.5L210.9 271.3L147.9 292.5H147.8L116.1 335.1L57.9 354.7H59.2L116.4 335.4H116.5L148.1 292.9L211.1 271.7H211.2L242.8 229.2L305.8 208H305.9L337.5 165.5L400.5 144.3H400.6L429.3 105.7V104.8L400.2 144L337.2 165.1ZM368.7 58.8L337.1 101.3L274.1 122.5H274L242.4 165L179.4 186.2H179.3L147.7 228.7L84.7 249.9H84.6L53 292.4L-10 313.6H-10.1L-40.4 354.4H-39.8L-9.7 313.8L53.3 292.6H53.4L85 250.1L148 228.9H148.1L179.7 186.4L242.7 165.2H242.8L274.4 122.7L337.4 101.5H337.5L369.1 59.1L429.3 38.8V38.4L368.7 58.8ZM376.6 64.1L345 106.6L282 127.8H281.9L250.3 170.3L187.3 191.5H187.2L155.6 234L92.6 255.2H92.5L60.9 297.7L-2.1 318.9H-2.2L-28.6 354.4H-28L-1.8 319.2L61.2 298H61.3L92.9 255.5L155.9 234.3H156L187.6 191.8L250.6 170.6H250.7L282.3 128.1L345.3 106.9H345.4L377 64.4L429.3 46.8V46.4L376.6 64.1ZM416 218.2L384.4 260.7L321.4 281.9H321.3L289.7 324.4L226.7 345.6H226.6L219.9 354.6H220.5L226.9 345.9L289.9 324.7H290L321.6 282.2L384.6 261H384.7L416.3 218.5L429.2 214.2V213.8L416 218.2ZM423.9 223.6L392.3 266.1L329.3 287.3H329.2L297.6 329.8L234.6 351H234.5L231.8 354.6H232.4L234.9 351.2L297.9 330H298L329.6 287.5L392.6 266.3H392.7L424.3 223.8L429.3 222.1V221.7L423.9 223.6ZM360.9 181L329.3 223.5L266.3 244.7H266.2L234.6 287.2L171.6 308.4H171.5L139.9 350.9L129.1 354.5H130.4L140.3 351.2H140.4L172 308.7L235 287.5H235.1L266.7 245L329.7 223.8H329.8L361.4 181.3L424.4 160.1H424.5L429.5 153.4V152.5L424.1 159.8L360.9 181ZM353 175.7L321.4 218.2L258.4 239.4H258.3L226.6 282L163.6 303.2H163.5L131.9 345.7L105.3 354.7H106.6L132.3 346.1H132.4L164 303.6L227 282.4H227.1L258.7 239.9L321.7 218.7H321.8L353.4 176.2L416.4 155H416.5L429.4 137.7V136.8L416.1 154.7L353 175.7ZM408.1 85.4L376.5 127.9L313.5 149.1H313.4L281.8 191.6L218.8 212.8H218.7L187.1 255.3L124.1 276.5H124L92.4 319L29.4 340.2H29.3L18.7 354.5H19.3L29.7 340.5L92.7 319.3H92.8L124.4 276.8L187.4 255.6H187.5L219.1 213.1L282.1 191.9H282.2L313.8 149.4L376.8 128.2H376.9L408.5 85.7L429.3 78.7V78.3L408.1 85.4ZM423.9 96L392.3 138.5L329.3 159.7H329.2L297.6 202.2L234.6 223.4H234.5L202.9 265.9L139.9 287.1H139.8L108.2 329.6L45.2 350.8H45.1L42.4 354.4H43L45.5 351L108.5 329.8H108.6L140.2 287.3L203.2 266.1H203.3L234.9 223.6L297.9 202.4H298L329.6 159.9L392.6 138.7H392.7L424.3 96.2L429.3 94.5V94.1L423.9 96ZM416 90.7L384.4 133.2L321.4 154.4H321.3L289.8 197L226.8 218.2H226.7L195.1 260.8L132.1 282H132L100.4 324.5L37.4 345.7H37.3L30.6 354.7H31.2L37.6 346L100.6 324.8H100.7L132.3 282.3L195.3 261.1H195.4L227 218.6L290 197.4H290.1L321.7 154.9L384.7 133.7H384.8L416.4 91L429.3 86.7V86.3L416 90.7ZM384.4 69.4L352.9 112L289.9 133.2H289.8L258.2 175.7L195.1 197H195L163.4 239.5L100.4 260.7H100.3L68.7 303.2L5.7 324.4H5.6L-16.8 354.6H-16.2L6 324.7L69 303.5H69.1L100.7 261L163.7 239.8H163.8L195.4 197.3L258.4 176.1H258.5L290.1 133.6L353.1 112.4H353.2L384.8 69.9L429.2 54.9V54.5L384.4 69.4ZM360.9 53.5L329.2 96L266.2 117.2H266.1L234.5 159.7L171.5 180.9H171.4L139.8 223.4L76.8 244.6H76.7L45.1 287.3L-17.9 308.5H-18L-49.6 351L-60.4 354.6H-59.1L-49.2 351.3H-49.1L-17.5 308.8L45.5 287.6H45.6L77.2 245.1L140.2 223.9H140.3L171.9 181.4L234.9 160.2H235L266.6 117.7L329.6 96.5H329.7L361.3 54L424.3 32.8H424.4L429.4 26.1V25L424 32.3L360.9 53.5ZM392.3 74.8L360.7 117.3L297.7 138.5H297.6L266.1 181L203.1 202.2H203L171.4 244.7L108.4 265.9H108.3L76.7 308.4L13.7 329.6H13.6L-4.9 354.7H-4.3L14 330.1L77 308.9H77.1L108.7 266.4L171.7 245.2H171.8L203.4 202.7L266.4 181.5H266.5L298.1 139L361.1 117.8H361.2L392.8 75L429.4 62.7V62.3L392.3 74.8ZM408.1 212.9L376.5 255.4L313.5 276.6H313.4L281.8 319.1L218.8 340.3H218.7L208.1 354.7H208.7L219.1 340.7L282.1 319.5H282.2L313.8 277L376.8 255.8H376.9L408.5 213.3L429.3 206.3V205.9L408.1 212.9ZM416 26.9L353 48.1H352.9L321.3 90.6L258.3 111.8H258.2L226.6 154.3L163.6 175.5H163.5L131.9 218L68.9 239.2H68.8L37.2 282L-25.8 303.2H-25.9L-57.5 345.7L-84.1 354.7H-82.8L-57.1 346.1H-57L-25.4 303.6L37.6 282.4H37.7L69.3 239.9L132.3 218.7H132.4L164 176.2L227 155H227.1L258.7 112.5L321.7 91.3H321.8L353.4 48.8L416.4 27.6H416.5L429.4 10.3V9L416 26.9ZM400.2 80.1L368.6 122.6L305.6 143.8H305.5L273.9 186.3L210.9 207.5H210.8L179.2 250L116.2 271.2H116.1L84.5 313.7L21.5 334.9H21.4L6.9 354.5H7.5L21.8 335.2L84.8 314H84.9L116.5 271.5L179.5 250.3H179.6L211.2 207.8L274.2 186.6H274.3L305.9 144.1L368.9 122.9H369L400.6 80.4L429.3 70.7V70.3L400.2 80.1ZM384.4 324.5L362 354.7H362.6L384.8 324.8L429.2 309.8V309.4L384.4 324.5ZM392.3 329.8L373.8 354.7H374.4L392.7 330.1L429.3 317.8V317.4L392.3 329.8ZM368.7 313.9L338.4 354.7H339L369.1 314.1L429.3 293.8V293.4L368.7 313.9ZM400.2 335.1L385.7 354.7H386.3L400.6 335.4L429.3 325.7V325.3L400.2 335.1ZM360.9 308.5L329.3 351L318.5 354.6H319.8L329.7 351.3H329.8L361.4 308.8L424.4 287.6H424.5L429.5 280.9V280L424.1 287.3L360.9 308.5ZM423.9 351.1L421.2 354.7H421.8L424.3 351.3L429.3 349.6V349.2L423.9 351.1ZM416 345.8L409.3 354.8H409.9L416.3 346.1L429.2 341.8V341.4L416 345.8ZM400.2 207.6L368.6 250.1L305.6 271.3H305.5L273.9 313.8L210.9 335H210.8L196.3 354.6H196.9L211.2 335.3L274.2 314.1H274.3L305.9 271.6L368.9 250.4H369L400.6 207.9L429.3 198.2V197.8L400.2 207.6ZM408.1 340.5L397.5 354.8H398.1L408.5 340.8L429.3 333.8V333.4L408.1 340.5ZM353 303.2L321.4 345.7L294.8 354.7H296.1L321.8 346.1H321.9L353.5 303.6L416.5 282.4H416.6L429.5 265.1V264.2L416 282L353 303.2ZM376.6 191.7L345 234.2L282 255.4H281.9L250.3 297.9L187.3 319.1H187.2L160.8 354.6H161.4L187.6 319.4L250.6 298.2H250.7L282.3 255.7L345.3 234.5H345.4L377 192L429.3 174.4V174L376.6 191.7ZM392.3 202.3L360.7 244.8L297.7 266H297.6L266.1 308.6L203.1 329.8H203L184.5 354.7H185.1L203.4 330.1L266.4 308.9H266.5L298.1 266.4L361.1 245.2H361.2L392.8 202.7L429.4 190.4V190L392.3 202.3ZM384.4 197L352.8 239.5L289.8 260.7H289.7L258.1 303.2L195.1 324.4H195L172.6 354.6H173.2L195.4 324.7L258.4 303.5H258.5L290.1 261L353.1 239.8H353.2L384.8 197.3L429.2 182.3V181.9L384.4 197ZM368.7 186.4L337.1 228.9L274.1 250.1H274L242.4 292.6L179.4 313.8H179.3L149 354.6H149.6L179.7 314L242.7 292.8H242.8L274.4 250.3L337.4 229.1H337.5L369.1 186.6L429.3 166.3V165.9L368.7 186.4ZM345.1 297.9L313.5 340.4L271.1 354.7H272.4L313.9 340.7H314L345.6 298.2L408.6 277H408.7L429.5 249V248.1L408.1 276.7L345.1 297.9ZM337.2 292.6L305.6 335.1L247.4 354.7H248.7L305.9 335.4H306L337.6 292.9L400.6 271.7H400.7L429.4 233.1V232.2L400.3 271.4L337.2 292.6ZM376.6 319.2L350.2 354.7H350.8L377 319.5L429.3 301.9V301.5L376.6 319.2ZM-64.9 149.4L-1.9 128.2H-1.8L29.8 85.7L92.8 64.5H92.9L124.5 22L187.5 0.8H187.6L190.3 -2.8H189.7L187.2 0.6L124.2 21.8H124.1L92.5 64.3L29.5 85.5H29.4L-2.2 128L-65.2 149.2H-65.3L-96.9 191.7L-101.9 193.4V193.8L-96.5 192L-64.9 149.4ZM-80.7 202.6L-49.1 160.1L13.9 138.9H14L45.6 96.4L108.6 75.2H108.7L140.3 32.7L203.3 11.5H203.4L214 -3H213.4L203 11L140 32.2H139.9L108.3 74.7L45.3 95.9H45.2L13.6 138.4L-49.4 159.6H-49.5L-81.1 202.1L-101.9 209.1V209.5L-80.7 202.6ZM-25.6 239.8L6 197.3L69 176.1H69.1L100.7 133.6L163.7 112.4H163.8L195.4 69.9L258.4 48.7H258.5L290.2 6L316.8 -3H315.5L289.8 5.6H289.7L258.1 48.1L195.1 69.3H195L163.5 112L100.5 133.2H100.4L68.8 175.7L5.8 196.9H5.7L-25.9 239.5L-88.9 260.7H-89L-101.9 278.1V279L-88.6 261L-25.6 239.8ZM-33.4 234.5L-1.8 192L61.2 170.8H61.3L92.9 128.3L155.9 107.1H156L187.6 64.6L250.6 43.4H250.7L282.3 0.9L293.1 -3H291.8L281.9 0.3H281.8L250.2 42.8L187.2 64H187.1L155.5 106.5L92.5 127.7H92.4L60.8 170.2L-2.2 191.4H-2.3L-33.9 233.9L-96.9 255.1H-97L-102 261.8V262.7L-96.6 255.4L-33.4 234.5ZM-85.7 -3H-86.9L-96.8 0.3L-96.9 0.4L-101.9 7.1V8L-96.5 0.7L-85.7 -3ZM-57 218.5L-25.5 176L37.5 154.8H37.6L69.2 112.3L132.2 91.1H132.3L163.9 48.6L226.9 27.4H227L249.5 -3H248.9L226.7 26.9L163.7 48.1H163.6L132 90.6L69 111.8H68.9L37.3 154.3L-25.7 175.5H-25.8L-57.4 218L-101.9 233.2V233.6L-57 218.5ZM-64.9 213.2L-33.3 170.7L29.7 149.5H29.8L61.4 107L124.4 85.8H124.5L156.1 43.3L219.1 22.1H219.2L237.6 -3H237L218.7 21.6L155.7 42.8H155.6L124 85.3L61 106.5H60.9L29.3 149L-33.7 170.2H-33.8L-65.4 212.7L-101.9 225.2V225.6L-64.9 213.2ZM-72.8 207.9L-41.2 165.4L21.8 144.2H21.9L53.5 101.7L116.5 80.5H116.6L148.1 37.8L211.1 16.6H211.2L225.8 -3H225.2L210.9 16.3L147.9 37.5H147.8L116.1 80.1L53.1 101.3H53L21.4 143.8L-41.6 165H-41.7L-73.3 207.5L-101.9 217.3V217.7L-72.8 207.9ZM-80.7 330.1L-49.1 287.6L13.9 266.4H14L45.6 223.9L108.6 202.7H108.7L140.3 160.2L203.3 139H203.4L235 96.5L298 75.3H298.1L329.7 32.8L392.7 11.6H392.8L403.4 -3H402.8L392.4 11L329.4 32.2H329.3L297.7 74.7L234.7 95.9H234.6L203 138.4L140 159.6H139.9L108.3 202.1L45.3 223.3H45.2L13.6 265.8L-49.4 287H-49.5L-81.1 329.5L-101.9 336.5V336.9L-80.7 330.1ZM-88.6 324.8L-57 282.3L6 261.1H6.1L37.7 218.6L100.7 197.4H100.8L132.4 154.9L195.4 133.7H195.5L227 91L290 69.8H290.1L321.7 27.3L384.7 6.1H384.8L391.5 -2.9H390.9L384.5 5.8L321.5 27H321.4L289.8 69.5L226.8 90.7H226.7L195.1 133.2L132.1 154.4H132L100.4 197L37.4 218.2H37.3L5.7 260.7L-57.3 281.9H-57.4L-89 324.4L-101.9 328.9V329.3L-88.6 324.8ZM-64.9 277L-1.9 255.8H-1.8L29.8 213.3L92.8 192.1H92.9L124.5 149.6L187.5 128.4H187.6L219.2 85.9L282.2 64.7H282.3L313.9 22.2L376.9 1H377L379.7 -2.6H379.1L376.6 0.8L313.6 22H313.5L281.9 64.5L218.9 85.7H218.8L187.2 128.2L124.2 149.4H124.1L92.5 191.9L29.5 213.1H29.4L-2.2 255.6L-65.2 276.8H-65.3L-96.9 319.2L-101.9 320.9V321.3L-96.5 319.5L-64.9 277ZM-17.7 245.1L13.9 202.6L76.9 181.4H77L108.6 138.9L171.6 117.7H171.7L203.4 75L266.4 53.8H266.5L298.1 11.3L340.5 -3H339.2L297.7 11H297.6L266.1 53.5L203.1 74.7H203L171.4 117.2L108.4 138.4H108.3L76.7 181L13.7 202.2H13.6L-18 244.7L-81 265.9H-81.1L-101.9 294V294.9L-80.7 266.4L-17.7 245.1ZM-64.9 340.7L-33.3 298.2L29.7 277H29.8L61.4 234.5L124.4 213.3H124.5L156.1 170.8L219.1 149.6H219.2L250.8 107.1L313.8 85.9H313.9L345.5 43.4L408.5 22.2H408.6L427 -3H426.4L408.1 21.6L345.1 42.8H345L313.4 85.3L250.4 106.5H250.3L218.7 149L155.7 170.2H155.6L124 212.7L61 233.9H60.9L29.3 276.4L-33.7 297.6H-33.8L-65.4 340.1L-101.9 352.8V353.2L-64.9 340.7ZM-9.8 250.4L21.8 207.9L84.8 186.7H84.9L116.5 144.2L179.5 123H179.6L211.2 80.5L274.2 59.3H274.3L305.9 16.8L364.1 -3H362.8L305.6 16.3H305.5L273.9 58.8L210.9 80H210.8L179.2 122.5L116.2 143.7H116.1L84.5 186.2L21.5 207.4H21.4L-10.2 249.9L-73.2 271.1H-73.3L-101.9 310V310.9L-72.8 271.7L-9.8 250.4ZM-49.1 223.8L-17.5 181.3L45.5 160.1H45.6L77.2 117.6L140.2 96.4H140.3L171.9 53.9L234.9 32.7H235L261.3 -3H260.7L234.5 32.2L171.5 53.4H171.4L139.8 96L76.8 117.2H76.7L45.1 159.8L-17.9 181H-18L-49.6 223.5L-101.9 241.2V241.6L-49.1 223.8ZM-72.8 335.4L-41.2 292.9L21.8 271.7H21.9L53.5 229.2L116.5 208H116.6L148.2 165.5L211.2 144.3H211.3L242.9 101.8L305.9 80.6H306L337.6 38.1L400.6 16.9H400.7L415.2 -3H414.6L400.3 16.3L337.3 37.5H337.2L305.6 80L242.6 101.2H242.5L210.9 143.7L147.9 164.9H147.8L116.1 207.6L53.1 228.8H53L21.4 271.3L-41.6 292.5H-41.7L-73.3 335L-101.9 344.8V345.2L-72.8 335.4ZM-88.6 197.3L-57 154.8L6 133.6H6.1L37.7 91L100.7 69.8H100.8L132.4 27.3L195.4 6.1H195.5L202.2 -2.9H201.6L195.1 5.7L132.1 26.9H132L100.4 69.4L37.4 90.6H37.3L5.7 133.1L-57.3 154.3H-57.4L-89 197L-101.9 201.3V201.7L-88.6 197.3ZM-72.8 80.4L-41.2 37.9L21.8 16.7H21.9L36.4 -3H35.8L21.5 16.3L-41.5 37.5H-41.6L-73.2 80.1L-101.9 89.7V90.1L-72.8 80.4ZM-57 91L-25.4 48.5L37.6 27.3H37.7L60.1 -3H59.5L37.3 26.9L-25.7 48.1H-25.8L-57.5 90.7L-101.9 105.7V106.1L-57 91ZM-49.1 96.3L-17.5 53.8L45.5 32.6H45.6L71.9 -3H71.3L45.1 32.2L-17.9 53.5H-18L-49.6 96L-101.9 113.6V114L-49.1 96.3ZM-64.9 85.7L-33.3 43.2L29.7 22H29.8L48.3 -3H47.7L29.4 21.6L-33.6 42.8H-33.7L-65.3 85.4L-101.9 97.7V98.1L-64.9 85.7ZM-41.3 101.6L-9.7 59.1L53.3 37.9H53.4L83.8 -3H83.1L53 37.6L-10 58.8H-10.1L-41.7 101.3L-101.9 121.6V122L-41.3 101.6ZM-62 -3H-63.3L-88.9 5.6H-89L-101.9 23V23.9L-88.6 6L-62 -3ZM-14.6 -3H-15.9L-73.2 16.3H-73.3L-101.9 54.9V55.8L-72.8 16.6L-14.6 -3ZM-38.3 -3H-39.6L-81 11H-81.1L-101.9 39V39.9L-80.7 11.4L-38.3 -3ZM-33.4 107L-1.8 64.5L61.2 43.3H61.3L92.9 0.8L103.7 -3H102.4L92.5 0.3H92.4L60.8 42.8L-2.2 64H-2.3L-33.9 106.5L-96.9 127.7H-97L-102 134.4V135.3L-96.6 128L-33.4 107ZM-80.7 75L-49.1 32.5L13.9 11.3H14L24.6 -3H24L13.6 11L-49.4 32.2H-49.5L-81.1 74.8L-101.9 81.8V82.2L-80.7 75ZM-9.8 122.9L21.8 80.4L84.8 59.2H84.9L116.5 16.7L174.7 -3H173.4L116.2 16.3H116.1L84.5 58.8L21.5 80H21.4L-10.2 122.5L-73.2 143.7H-73.3L-101.9 182.4V183.3L-72.8 144.1L-9.8 122.9ZM-25.6 112.3L6.1 69.7L69.1 48.5H69.2L100.8 6L127.4 -3H126.1L100.4 5.6H100.3L68.7 48.1L5.7 69.3H5.6L-25.9 112L-88.9 133.2H-89L-101.9 150.6V151.5L-88.6 133.6L-25.6 112.3ZM-17.7 117.6L14 75L77 53.8H77.1L108.7 11.3L151.1 -3H149.8L108.3 11H108.2L76.6 53.5L13.6 74.7H13.5L-18.1 117.2L-81.1 138.4H-81.2L-101.9 166.5V167.4L-80.7 138.9L-17.7 117.6ZM-88.6 69.7L-57 27.2L6 6H6.1L12.8 -3H12.1L5.7 5.7L-57.3 26.9H-57.4L-89 69.4L-101.9 73.8V74.2L-88.6 69.7ZM-64.9 21.9L-1.9 0.7H-1.8L0.900002 -2.9H0.299995L-2.2 0.5L-65.2 21.7H-65.3L-96.9 64.1L-101.9 65.8V66.2L-96.5 64.4L-64.9 21.9ZM-41.3 229.2L-9.7 186.7L53.3 165.5H53.4L85 123L148 101.8H148.1L179.7 59.3L242.7 38.1H242.8L273.2 -3H272.6L242.5 37.6L179.5 58.8H179.4L147.8 101.3L84.8 122.5H84.7L53.1 165L-9.9 186.2H-10L-41.6 228.7L-101.9 249.1V249.5L-41.3 229.2Z" fill="#06E36F"></path><path d="M1407.1 170.4L1375.5 212.9L1312.5 234.1H1312.4L1280.8 276.6L1217.8 297.8H1217.7L1186.1 340.3L1143.7 354.6H1145L1186.5 340.6H1186.6L1218.2 298.1L1281.2 276.9H1281.3L1312.9 234.4L1375.9 213.2H1376L1407.6 170.7L1470.6 149.5H1470.7L1491.5 121.5V120.6L1470.1 149.2L1407.1 170.4ZM1399.2 165.1L1367.6 207.6L1304.6 228.8H1304.5L1272.9 271.3L1209.9 292.5H1209.8L1178.1 335.1L1119.9 354.7H1121.2L1178.4 335.4H1178.5L1210.1 292.9L1273.1 271.7H1273.2L1304.8 229.2L1367.8 208H1367.9L1399.5 165.5L1462.5 144.3H1462.6L1491.3 105.7V104.8L1462.2 144L1399.2 165.1ZM1430.7 58.8L1399.1 101.3L1336.1 122.5H1336L1304.4 165L1241.4 186.2H1241.3L1209.7 228.7L1146.7 249.9H1146.6L1115 292.4L1052 313.6H1051.9L1021.6 354.4H1022.2L1052.3 313.8L1115.3 292.6H1115.4L1147 250.1L1210 228.9H1210.1L1241.7 186.4L1304.7 165.2H1304.8L1336.4 122.7L1399.4 101.5H1399.5L1431.1 59.1L1491.3 38.8V38.4L1430.7 58.8ZM1438.6 64.1L1407 106.6L1344 127.8H1343.9L1312.3 170.3L1249.3 191.5H1249.2L1217.6 234L1154.6 255.2H1154.5L1122.9 297.7L1059.9 318.9H1059.8L1033.4 354.4H1034L1060.2 319.2L1123.2 298H1123.3L1154.9 255.5L1217.9 234.3H1218L1249.6 191.8L1312.6 170.6H1312.7L1344.3 128.1L1407.3 106.9H1407.4L1439 64.4L1491.3 46.8V46.4L1438.6 64.1ZM1478 218.2L1446.4 260.7L1383.4 281.9H1383.3L1351.7 324.4L1288.7 345.6H1288.6L1281.9 354.6H1282.5L1288.9 345.9L1351.9 324.7H1352L1383.6 282.2L1446.6 261H1446.7L1478.3 218.5L1491.2 214.2V213.8L1478 218.2ZM1485.9 223.6L1454.3 266.1L1391.3 287.3H1391.2L1359.6 329.8L1296.6 351H1296.5L1293.8 354.6H1294.4L1296.9 351.2L1359.9 330H1360L1391.6 287.5L1454.6 266.3H1454.7L1486.3 223.8L1491.3 222.1V221.7L1485.9 223.6ZM1422.9 181L1391.3 223.5L1328.3 244.7H1328.2L1296.6 287.2L1233.6 308.4H1233.5L1201.9 350.9L1191.1 354.5H1192.4L1202.3 351.2H1202.4L1234 308.7L1297 287.5H1297.1L1328.7 245L1391.7 223.8H1391.8L1423.4 181.3L1486.4 160.1H1486.5L1491.5 153.4V152.5L1486.1 159.8L1422.9 181ZM1415 175.7L1383.4 218.2L1320.4 239.4H1320.3L1288.6 282L1225.6 303.2H1225.5L1193.9 345.7L1167.3 354.7H1168.6L1194.3 346.1H1194.4L1226 303.6L1289 282.4H1289.1L1320.7 239.9L1383.7 218.7H1383.8L1415.4 176.2L1478.4 155H1478.5L1491.4 137.7V136.8L1478.1 154.7L1415 175.7ZM1470.1 85.4L1438.5 127.9L1375.5 149.1H1375.4L1343.8 191.6L1280.8 212.8H1280.7L1249.1 255.3L1186.1 276.5H1186L1154.4 319L1091.4 340.2H1091.3L1080.7 354.5H1081.3L1091.7 340.5L1154.7 319.3H1154.8L1186.4 276.8L1249.4 255.6H1249.5L1281.1 213.1L1344.1 191.9H1344.2L1375.8 149.4L1438.8 128.2H1438.9L1470.5 85.7L1491.3 78.7V78.3L1470.1 85.4ZM1485.9 96L1454.3 138.5L1391.3 159.7H1391.2L1359.6 202.2L1296.6 223.4H1296.5L1264.9 265.9L1201.9 287.1H1201.8L1170.2 329.6L1107.2 350.8H1107.1L1104.4 354.4H1105L1107.5 351L1170.5 329.8H1170.6L1202.2 287.3L1265.2 266.1H1265.3L1296.9 223.6L1359.9 202.4H1360L1391.6 159.9L1454.6 138.7H1454.7L1486.3 96.2L1491.3 94.5V94.1L1485.9 96ZM1478 90.7L1446.4 133.2L1383.4 154.4H1383.3L1351.8 197L1288.8 218.2H1288.7L1257.1 260.8L1194.1 282H1194L1162.4 324.5L1099.4 345.7H1099.3L1092.6 354.7H1093.2L1099.6 346L1162.6 324.8H1162.7L1194.3 282.3L1257.3 261.1H1257.4L1289 218.6L1352 197.4H1352.1L1383.7 154.9L1446.7 133.7H1446.8L1478.4 91L1491.3 86.7V86.3L1478 90.7ZM1446.4 69.4L1414.9 112L1351.9 133.2H1351.8L1320.2 175.7L1257.1 197H1257L1225.4 239.5L1162.4 260.7H1162.3L1130.7 303.2L1067.7 324.4H1067.6L1045.2 354.6H1045.8L1068 324.7L1131 303.5H1131.1L1162.7 261L1225.7 239.8H1225.8L1257.4 197.3L1320.4 176.1H1320.5L1352.1 133.6L1415.1 112.4H1415.2L1446.8 69.9L1491.2 54.9V54.5L1446.4 69.4ZM1422.9 53.5L1391.2 96L1328.2 117.2H1328.1L1296.5 159.7L1233.5 180.9H1233.4L1201.8 223.4L1138.8 244.6H1138.7L1107.1 287.3L1044.1 308.5H1044L1012.4 351L1001.6 354.6H1002.9L1012.8 351.3H1012.9L1044.5 308.8L1107.5 287.6H1107.6L1139.2 245.1L1202.2 223.9H1202.3L1233.9 181.4L1296.9 160.2H1297L1328.6 117.7L1391.6 96.5H1391.7L1423.3 54L1486.3 32.8H1486.4L1491.4 26.1V25L1486 32.3L1422.9 53.5ZM1454.3 74.8L1422.7 117.3L1359.7 138.5H1359.6L1328.1 181L1265.1 202.2H1265L1233.4 244.7L1170.4 265.9H1170.3L1138.7 308.4L1075.7 329.6H1075.6L1057.1 354.7H1057.7L1076 330.1L1139 308.9H1139.1L1170.7 266.4L1233.7 245.2H1233.8L1265.4 202.7L1328.4 181.5H1328.5L1360.1 139L1423.1 117.8H1423.2L1454.8 75L1491.4 62.7V62.3L1454.3 74.8ZM1470.1 212.9L1438.5 255.4L1375.5 276.6H1375.4L1343.8 319.1L1280.8 340.3H1280.7L1270.1 354.7H1270.7L1281.1 340.7L1344.1 319.5H1344.2L1375.8 277L1438.8 255.8H1438.9L1470.5 213.3L1491.3 206.3V205.9L1470.1 212.9ZM1478 26.9L1415 48.1H1414.9L1383.3 90.6L1320.3 111.8H1320.2L1288.6 154.3L1225.6 175.5H1225.5L1193.9 218L1130.9 239.2H1130.8L1099.2 282L1036.2 303.2H1036.1L1004.5 345.7L977.9 354.7H979.2L1004.9 346.1H1005L1036.6 303.6L1099.6 282.4H1099.7L1131.3 239.9L1194.3 218.7H1194.4L1226 176.2L1289 155H1289.1L1320.7 112.5L1383.7 91.3H1383.8L1415.4 48.8L1478.4 27.6H1478.5L1491.4 10.3V9L1478 26.9ZM1462.2 80.1L1430.6 122.6L1367.6 143.8H1367.5L1335.9 186.3L1272.9 207.5H1272.8L1241.2 250L1178.2 271.2H1178.1L1146.5 313.7L1083.5 334.9H1083.4L1068.9 354.5H1069.5L1083.8 335.2L1146.8 314H1146.9L1178.5 271.5L1241.5 250.3H1241.6L1273.2 207.8L1336.2 186.6H1336.3L1367.9 144.1L1430.9 122.9H1431L1462.6 80.4L1491.3 70.7V70.3L1462.2 80.1ZM1446.4 324.5L1424 354.7H1424.6L1446.8 324.8L1491.2 309.8V309.4L1446.4 324.5ZM1454.3 329.8L1435.8 354.7H1436.4L1454.7 330.1L1491.3 317.8V317.4L1454.3 329.8ZM1430.7 313.9L1400.4 354.7H1401L1431.1 314.1L1491.3 293.8V293.4L1430.7 313.9ZM1462.2 335.1L1447.7 354.7H1448.3L1462.6 335.4L1491.3 325.7V325.3L1462.2 335.1ZM1422.9 308.5L1391.3 351L1380.5 354.6H1381.8L1391.7 351.3H1391.8L1423.4 308.8L1486.4 287.6H1486.5L1491.5 280.9V280L1486.1 287.3L1422.9 308.5ZM1485.9 351.1L1483.2 354.7H1483.8L1486.3 351.3L1491.3 349.6V349.2L1485.9 351.1ZM1478 345.8L1471.3 354.8H1471.9L1478.3 346.1L1491.2 341.8V341.4L1478 345.8ZM1462.2 207.6L1430.6 250.1L1367.6 271.3H1367.5L1335.9 313.8L1272.9 335H1272.8L1258.3 354.6H1258.9L1273.2 335.3L1336.2 314.1H1336.3L1367.9 271.6L1430.9 250.4H1431L1462.6 207.9L1491.3 198.2V197.8L1462.2 207.6ZM1470.1 340.5L1459.5 354.8H1460.1L1470.5 340.8L1491.3 333.8V333.4L1470.1 340.5ZM1415 303.2L1383.4 345.7L1356.8 354.7H1358.1L1383.8 346.1H1383.9L1415.5 303.6L1478.5 282.4H1478.6L1491.5 265.1V264.2L1478 282L1415 303.2ZM1438.6 191.7L1407 234.2L1344 255.4H1343.9L1312.3 297.9L1249.3 319.1H1249.2L1222.8 354.6H1223.4L1249.6 319.4L1312.6 298.2H1312.7L1344.3 255.7L1407.3 234.5H1407.4L1439 192L1491.3 174.4V174L1438.6 191.7ZM1454.3 202.3L1422.7 244.8L1359.7 266H1359.6L1328.1 308.6L1265.1 329.8H1265L1246.5 354.7H1247.1L1265.4 330.1L1328.4 308.9H1328.5L1360.1 266.4L1423.1 245.2H1423.2L1454.8 202.7L1491.4 190.4V190L1454.3 202.3ZM1446.4 197L1414.8 239.5L1351.8 260.7H1351.7L1320.1 303.2L1257.1 324.4H1257L1234.6 354.6H1235.2L1257.4 324.7L1320.4 303.5H1320.5L1352.1 261L1415.1 239.8H1415.2L1446.8 197.3L1491.2 182.3V181.9L1446.4 197ZM1430.7 186.4L1399.1 228.9L1336.1 250.1H1336L1304.4 292.6L1241.4 313.8H1241.3L1211 354.6H1211.6L1241.7 314L1304.7 292.8H1304.8L1336.4 250.3L1399.4 229.1H1399.5L1431.1 186.6L1491.3 166.3V165.9L1430.7 186.4ZM1407.1 297.9L1375.5 340.4L1333.1 354.7H1334.4L1375.9 340.7H1376L1407.6 298.2L1470.6 277H1470.7L1491.5 249V248.1L1470.1 276.7L1407.1 297.9ZM1399.2 292.6L1367.6 335.1L1309.4 354.7H1310.7L1367.9 335.4H1368L1399.6 292.9L1462.6 271.7H1462.7L1491.4 233.1V232.2L1462.3 271.4L1399.2 292.6ZM1438.6 319.2L1412.2 354.7H1412.8L1439 319.5L1491.3 301.9V301.5L1438.6 319.2ZM997.1 149.4L1060.1 128.2H1060.2L1091.8 85.7L1154.8 64.5H1154.9L1186.5 22L1249.5 0.8H1249.6L1252.3 -2.8H1251.7L1249.2 0.6L1186.2 21.8H1186.1L1154.5 64.3L1091.5 85.5H1091.4L1059.8 128L996.8 149.2H996.7L965.1 191.7L960.1 193.4V193.8L965.5 192L997.1 149.4ZM981.3 202.6L1012.9 160.1L1075.9 138.9H1076L1107.6 96.4L1170.6 75.2H1170.7L1202.3 32.7L1265.3 11.5H1265.4L1276 -3H1275.4L1265 11L1202 32.2H1201.9L1170.3 74.7L1107.3 95.9H1107.2L1075.6 138.4L1012.6 159.6H1012.5L980.9 202.1L960.1 209.1V209.5L981.3 202.6ZM1036.4 239.8L1068 197.3L1131 176.1H1131.1L1162.7 133.6L1225.7 112.4H1225.8L1257.4 69.9L1320.4 48.7H1320.5L1352.2 6L1378.8 -3H1377.5L1351.8 5.6H1351.7L1320.1 48.1L1257.1 69.3H1257L1225.5 112L1162.5 133.2H1162.4L1130.8 175.7L1067.8 196.9H1067.7L1036.1 239.5L973.1 260.7H973L960.1 278.1V279L973.4 261L1036.4 239.8ZM1028.6 234.5L1060.2 192L1123.2 170.8H1123.3L1154.9 128.3L1217.9 107.1H1218L1249.6 64.6L1312.6 43.4H1312.7L1344.3 0.9L1355.1 -3H1353.8L1343.9 0.3H1343.8L1312.2 42.8L1249.2 64H1249.1L1217.5 106.5L1154.5 127.7H1154.4L1122.8 170.2L1059.8 191.4H1059.7L1028.1 233.9L965.1 255.1H965L960 261.8V262.7L965.4 255.4L1028.6 234.5ZM976.3 -3H975.1L965.2 0.3L965.1 0.4L960.1 7.1V8L965.5 0.7L976.3 -3ZM1005 218.5L1036.5 176L1099.5 154.8H1099.6L1131.2 112.3L1194.2 91.1H1194.3L1225.9 48.6L1288.9 27.4H1289L1311.5 -3H1310.9L1288.7 26.9L1225.7 48.1H1225.6L1194 90.6L1131 111.8H1130.9L1099.3 154.3L1036.3 175.5H1036.2L1004.6 218L960.1 233.2V233.6L1005 218.5ZM997.1 213.2L1028.7 170.7L1091.7 149.5H1091.8L1123.4 107L1186.4 85.8H1186.5L1218.1 43.3L1281.1 22.1H1281.2L1299.6 -3H1299L1280.7 21.6L1217.7 42.8H1217.6L1186 85.3L1123 106.5H1122.9L1091.3 149L1028.3 170.2H1028.2L996.6 212.7L960.1 225.2V225.6L997.1 213.2ZM989.2 207.9L1020.8 165.4L1083.8 144.2H1083.9L1115.5 101.7L1178.5 80.5H1178.6L1210.1 37.8L1273.1 16.6H1273.2L1287.8 -3H1287.2L1272.9 16.3L1209.9 37.5H1209.8L1178.1 80.1L1115.1 101.3H1115L1083.4 143.8L1020.4 165H1020.3L988.7 207.5L960.1 217.3V217.7L989.2 207.9ZM981.3 330.1L1012.9 287.6L1075.9 266.4H1076L1107.6 223.9L1170.6 202.7H1170.7L1202.3 160.2L1265.3 139H1265.4L1297 96.5L1360 75.3H1360.1L1391.7 32.8L1454.7 11.6H1454.8L1465.4 -3H1464.8L1454.4 11L1391.4 32.2H1391.3L1359.7 74.7L1296.7 95.9H1296.6L1265 138.4L1202 159.6H1201.9L1170.3 202.1L1107.3 223.3H1107.2L1075.6 265.8L1012.6 287H1012.5L980.9 329.5L960.1 336.5V336.9L981.3 330.1ZM973.4 324.8L1005 282.3L1068 261.1H1068.1L1099.7 218.6L1162.7 197.4H1162.8L1194.4 154.9L1257.4 133.7H1257.5L1289 91L1352 69.8H1352.1L1383.7 27.3L1446.7 6.1H1446.8L1453.5 -2.9H1452.9L1446.5 5.8L1383.5 27H1383.4L1351.8 69.5L1288.8 90.7H1288.7L1257.1 133.2L1194.1 154.4H1194L1162.4 197L1099.4 218.2H1099.3L1067.7 260.7L1004.7 281.9H1004.6L973 324.4L960.1 328.9V329.3L973.4 324.8ZM997.1 277L1060.1 255.8H1060.2L1091.8 213.3L1154.8 192.1H1154.9L1186.5 149.6L1249.5 128.4H1249.6L1281.2 85.9L1344.2 64.7H1344.3L1375.9 22.2L1438.9 1H1439L1441.7 -2.6H1441.1L1438.6 0.8L1375.6 22H1375.5L1343.9 64.5L1280.9 85.7H1280.8L1249.2 128.2L1186.2 149.4H1186.1L1154.5 191.9L1091.5 213.1H1091.4L1059.8 255.6L996.8 276.8H996.7L965.1 319.2L960.1 320.9V321.3L965.5 319.5L997.1 277ZM1044.3 245.1L1075.9 202.6L1138.9 181.4H1139L1170.6 138.9L1233.6 117.7H1233.7L1265.4 75L1328.4 53.8H1328.5L1360.1 11.3L1402.5 -3H1401.2L1359.7 11H1359.6L1328.1 53.5L1265.1 74.7H1265L1233.4 117.2L1170.4 138.4H1170.3L1138.7 181L1075.7 202.2H1075.6L1044 244.7L981 265.9H980.9L960.1 294V294.9L981.3 266.4L1044.3 245.1ZM997.1 340.7L1028.7 298.2L1091.7 277H1091.8L1123.4 234.5L1186.4 213.3H1186.5L1218.1 170.8L1281.1 149.6H1281.2L1312.8 107.1L1375.8 85.9H1375.9L1407.5 43.4L1470.5 22.2H1470.6L1489 -3H1488.4L1470.1 21.6L1407.1 42.8H1407L1375.4 85.3L1312.4 106.5H1312.3L1280.7 149L1217.7 170.2H1217.6L1186 212.7L1123 233.9H1122.9L1091.3 276.4L1028.3 297.6H1028.2L996.6 340.1L960.1 352.8V353.2L997.1 340.7ZM1052.2 250.4L1083.8 207.9L1146.8 186.7H1146.9L1178.5 144.2L1241.5 123H1241.6L1273.2 80.5L1336.2 59.3H1336.3L1367.9 16.8L1426.1 -3H1424.8L1367.6 16.3H1367.5L1335.9 58.8L1272.9 80H1272.8L1241.2 122.5L1178.2 143.7H1178.1L1146.5 186.2L1083.5 207.4H1083.4L1051.8 249.9L988.8 271.1H988.7L960.1 310V310.9L989.2 271.7L1052.2 250.4ZM1012.9 223.8L1044.5 181.3L1107.5 160.1H1107.6L1139.2 117.6L1202.2 96.4H1202.3L1233.9 53.9L1296.9 32.7H1297L1323.3 -3H1322.7L1296.5 32.2L1233.5 53.4H1233.4L1201.8 96L1138.8 117.2H1138.7L1107.1 159.8L1044.1 181H1044L1012.4 223.5L960.1 241.2V241.6L1012.9 223.8ZM989.2 335.4L1020.8 292.9L1083.8 271.7H1083.9L1115.5 229.2L1178.5 208H1178.6L1210.2 165.5L1273.2 144.3H1273.3L1304.9 101.8L1367.9 80.6H1368L1399.6 38.1L1462.6 16.9H1462.7L1477.2 -3H1476.6L1462.3 16.3L1399.3 37.5H1399.2L1367.6 80L1304.6 101.2H1304.5L1272.9 143.7L1209.9 164.9H1209.8L1178.1 207.6L1115.1 228.8H1115L1083.4 271.3L1020.4 292.5H1020.3L988.7 335L960.1 344.8V345.2L989.2 335.4ZM973.4 197.3L1005 154.8L1068 133.6H1068.1L1099.7 91L1162.7 69.8H1162.8L1194.4 27.3L1257.4 6.1H1257.5L1264.2 -2.9H1263.6L1257.1 5.7L1194.1 26.9H1194L1162.4 69.4L1099.4 90.6H1099.3L1067.7 133.1L1004.7 154.3H1004.6L973 197L960.1 201.3V201.7L973.4 197.3ZM989.2 80.4L1020.8 37.9L1083.8 16.7H1083.9L1098.4 -3H1097.8L1083.5 16.3L1020.5 37.5H1020.4L988.8 80.1L960.1 89.7V90.1L989.2 80.4ZM1005 91L1036.6 48.5L1099.6 27.3H1099.7L1122.1 -3H1121.5L1099.3 26.9L1036.3 48.1H1036.2L1004.5 90.7L960.1 105.7V106.1L1005 91ZM1012.9 96.3L1044.5 53.8L1107.5 32.6H1107.6L1133.9 -3H1133.3L1107.1 32.2L1044.1 53.5H1044L1012.4 96L960.1 113.6V114L1012.9 96.3ZM997.1 85.7L1028.7 43.2L1091.7 22H1091.8L1110.3 -3H1109.7L1091.4 21.6L1028.4 42.8H1028.3L996.7 85.4L960.1 97.7V98.1L997.1 85.7ZM1020.7 101.6L1052.3 59.1L1115.3 37.9H1115.4L1145.8 -3H1145.1L1115 37.6L1052 58.8H1051.9L1020.3 101.3L960.1 121.6V122L1020.7 101.6ZM1000 -3H998.7L973.1 5.6H973L960.1 23V23.9L973.4 6L1000 -3ZM1047.4 -3H1046.1L988.8 16.3H988.7L960.1 54.9V55.8L989.2 16.6L1047.4 -3ZM1023.7 -3H1022.4L981 11H980.9L960.1 39V39.9L981.3 11.4L1023.7 -3ZM1028.6 107L1060.2 64.5L1123.2 43.3H1123.3L1154.9 0.8L1165.7 -3H1164.4L1154.5 0.3H1154.4L1122.8 42.8L1059.8 64H1059.7L1028.1 106.5L965.1 127.7H965L960 134.4V135.3L965.4 128L1028.6 107ZM981.3 75L1012.9 32.5L1075.9 11.3H1076L1086.6 -3H1086L1075.6 11L1012.6 32.2H1012.5L980.9 74.8L960.1 81.8V82.2L981.3 75ZM1052.2 122.9L1083.8 80.4L1146.8 59.2H1146.9L1178.5 16.7L1236.7 -3H1235.4L1178.2 16.3H1178.1L1146.5 58.8L1083.5 80H1083.4L1051.8 122.5L988.8 143.7H988.7L960.1 182.4V183.3L989.2 144.1L1052.2 122.9ZM1036.4 112.3L1068.1 69.7L1131.1 48.5H1131.2L1162.8 6L1189.4 -3H1188.1L1162.4 5.6H1162.3L1130.7 48.1L1067.7 69.3H1067.6L1036.1 112L973.1 133.2H973L960.1 150.6V151.5L973.4 133.6L1036.4 112.3ZM1044.3 117.6L1076 75L1139 53.8H1139.1L1170.7 11.3L1213.1 -3H1211.8L1170.3 11H1170.2L1138.6 53.5L1075.6 74.7H1075.5L1043.9 117.2L980.9 138.4H980.8L960.1 166.5V167.4L981.3 138.9L1044.3 117.6ZM973.4 69.7L1005 27.2L1068 6H1068.1L1074.8 -3H1074.1L1067.7 5.7L1004.7 26.9H1004.6L973 69.4L960.1 73.8V74.2L973.4 69.7ZM997.1 21.9L1060.1 0.7H1060.2L1062.9 -2.9H1062.3L1059.8 0.5L996.8 21.7H996.7L965.1 64.1L960.1 65.8V66.2L965.5 64.4L997.1 21.9ZM1020.7 229.2L1052.3 186.7L1115.3 165.5H1115.4L1147 123L1210 101.8H1210.1L1241.7 59.3L1304.7 38.1H1304.8L1335.2 -3H1334.6L1304.5 37.6L1241.5 58.8H1241.4L1209.8 101.3L1146.8 122.5H1146.7L1115.1 165L1052.1 186.2H1052L1020.4 228.7L960.1 249.1V249.5L1020.7 229.2Z" fill="#06E36F"></path><path d="M513.4 170.4L545 212.9L608 234.1H608.1L639.7 276.6L702.7 297.8H702.8L734.4 340.3L776.8 354.6H775.5L734 340.6H733.9L702.3 298.1L639.3 276.9H639.2L607.6 234.4L544.6 213.2H544.5L512.9 170.7L449.9 149.5H449.8L429 121.5V120.6L450.4 149.2L513.4 170.4ZM521.3 165.1L552.9 207.6L615.9 228.8H616L647.6 271.3L710.6 292.5H710.7L742.4 335.1L800.6 354.7H799.3L742.1 335.4H742L710.4 292.9L647.4 271.7H647.3L615.7 229.2L552.7 208H552.6L521 165.5L458 144.3H457.9L429.2 105.7V104.8L458.3 144L521.3 165.1ZM489.8 58.8L521.4 101.3L584.4 122.5H584.5L616.1 165L679.1 186.2H679.2L710.8 228.7L773.8 249.9H773.9L805.5 292.4L868.5 313.6H868.6L898.9 354.4H898.3L868.2 313.8L805.2 292.6H805.1L773.5 250.1L710.5 228.9H710.4L678.8 186.4L615.8 165.2H615.7L584.1 122.7L521.1 101.5H521L489.4 59.1L429.2 38.8V38.4L489.8 58.8ZM481.9 64.1L513.5 106.6L576.5 127.8H576.6L608.2 170.3L671.2 191.5H671.3L702.9 234L765.9 255.2H766L797.6 297.7L860.6 318.9H860.7L887.1 354.4H886.5L860.3 319.2L797.3 298H797.2L765.6 255.5L702.6 234.3H702.5L670.9 191.8L607.9 170.6H607.8L576.2 128.1L513.2 106.9H513.1L481.5 64.4L429.2 46.8V46.4L481.9 64.1ZM442.5 218.2L474.1 260.7L537.1 281.9H537.2L568.8 324.4L631.8 345.6H631.9L638.6 354.6H638L631.6 345.9L568.6 324.7H568.5L536.9 282.2L473.9 261H473.8L442.2 218.5L429.3 214.2V213.8L442.5 218.2ZM434.6 223.6L466.2 266.1L529.2 287.3H529.3L560.9 329.8L623.9 351H624L626.7 354.6H626.1L623.6 351.2L560.6 330H560.5L528.9 287.5L465.9 266.3H465.8L434.2 223.8L429.2 222.1V221.7L434.6 223.6ZM497.6 181L529.2 223.5L592.2 244.7H592.3L623.9 287.2L686.9 308.4H687L718.6 350.9L729.4 354.5H728.1L718.2 351.2H718.1L686.5 308.7L623.5 287.5H623.4L591.8 245L528.8 223.8H528.7L497.1 181.3L434.1 160.1H434L429 153.4V152.5L434.4 159.8L497.6 181ZM505.5 175.7L537.1 218.2L600.1 239.4H600.2L631.9 282L694.9 303.2H695L726.6 345.7L753.2 354.7H751.9L726.2 346.1H726.1L694.5 303.6L631.5 282.4H631.4L599.8 239.9L536.8 218.7H536.7L505.1 176.2L442.1 155H442L429.1 137.7V136.8L442.4 154.7L505.5 175.7ZM450.4 85.4L482 127.9L545 149.1H545.1L576.7 191.6L639.7 212.8H639.8L671.4 255.3L734.4 276.5H734.5L766.1 319L829.1 340.2H829.2L839.8 354.5H839.2L828.8 340.5L765.8 319.3H765.7L734.1 276.8L671.1 255.6H671L639.4 213.1L576.4 191.9H576.3L544.7 149.4L481.7 128.2H481.6L450 85.7L429.2 78.7V78.3L450.4 85.4ZM434.6 96L466.2 138.5L529.2 159.7H529.3L560.9 202.2L623.9 223.4H624L655.6 265.9L718.6 287.1H718.7L750.3 329.6L813.3 350.8H813.4L816.1 354.4H815.5L813 351L750 329.8H749.9L718.3 287.3L655.3 266.1H655.2L623.6 223.6L560.6 202.4H560.5L528.9 159.9L465.9 138.7H465.8L434.2 96.2L429.2 94.5V94.1L434.6 96ZM442.5 90.7L474.1 133.2L537.1 154.4H537.2L568.7 197L631.7 218.2H631.8L663.4 260.8L726.4 282H726.5L758.1 324.5L821.1 345.7H821.2L827.9 354.7H827.3L820.9 346L757.9 324.8H757.8L726.2 282.3L663.2 261.1H663.1L631.5 218.6L568.5 197.4H568.4L536.8 154.9L473.8 133.7H473.7L442.1 91L429.2 86.7V86.3L442.5 90.7ZM474.1 69.4L505.6 112L568.6 133.2H568.7L600.3 175.7L663.4 197H663.5L695.1 239.5L758.1 260.7H758.2L789.8 303.2L852.8 324.4H852.9L875.3 354.6H874.7L852.5 324.7L789.5 303.5H789.4L757.8 261L694.8 239.8H694.7L663.1 197.3L600.1 176.1H600L568.4 133.6L505.4 112.4H505.3L473.7 69.9L429.3 54.9V54.5L474.1 69.4ZM497.6 53.5L529.3 96L592.3 117.2H592.4L624 159.7L687 180.9H687.1L718.7 223.4L781.7 244.6H781.8L813.4 287.3L876.4 308.5H876.5L908.1 351L918.9 354.6H917.6L907.7 351.3H907.6L876 308.8L813 287.6H812.9L781.3 245.1L718.3 223.9H718.2L686.6 181.4L623.6 160.2H623.5L591.9 117.7L528.9 96.5H528.8L497.2 54L434.2 32.8H434.1L429.1 26.1V25L434.5 32.3L497.6 53.5ZM466.2 74.8L497.8 117.3L560.8 138.5H560.9L592.4 181L655.4 202.2H655.5L687.1 244.7L750.1 265.9H750.2L781.8 308.4L844.8 329.6H844.9L863.4 354.7H862.8L844.5 330.1L781.5 308.9H781.4L749.8 266.4L686.8 245.2H686.7L655.1 202.7L592.1 181.5H592L560.4 139L497.4 117.8H497.3L465.7 75L429.1 62.7V62.3L466.2 74.8ZM450.4 212.9L482 255.4L545 276.6H545.1L576.7 319.1L639.7 340.3H639.8L650.4 354.7H649.8L639.4 340.7L576.4 319.5H576.3L544.7 277L481.7 255.8H481.6L450 213.3L429.2 206.3V205.9L450.4 212.9ZM442.5 26.9L505.5 48.1H505.6L537.2 90.6L600.2 111.8H600.3L631.9 154.3L694.9 175.5H695L726.6 218L789.6 239.2H789.7L821.3 282L884.3 303.2H884.4L916 345.7L942.6 354.7H941.3L915.6 346.1H915.5L883.9 303.6L820.9 282.4H820.8L789.2 239.9L726.2 218.7H726.1L694.5 176.2L631.5 155H631.4L599.8 112.5L536.8 91.3H536.7L505.1 48.8L442.1 27.6H442L429.1 10.3V9L442.5 26.9ZM458.3 80.1L489.9 122.6L552.9 143.8H553L584.6 186.3L647.6 207.5H647.7L679.3 250L742.3 271.2H742.4L774 313.7L837 334.9H837.1L851.6 354.5H851L836.7 335.2L773.7 314H773.6L742 271.5L679 250.3H678.9L647.3 207.8L584.3 186.6H584.2L552.6 144.1L489.6 122.9H489.5L457.9 80.4L429.2 70.7V70.3L458.3 80.1ZM474.1 324.5L496.5 354.7H495.9L473.7 324.8L429.3 309.8V309.4L474.1 324.5ZM466.2 329.8L484.7 354.7H484.1L465.8 330.1L429.2 317.8V317.4L466.2 329.8ZM489.8 313.9L520.1 354.7H519.5L489.4 314.1L429.2 293.8V293.4L489.8 313.9ZM458.3 335.1L472.8 354.7H472.2L457.9 335.4L429.2 325.7V325.3L458.3 335.1ZM497.6 308.5L529.2 351L540 354.6H538.7L528.8 351.3H528.7L497.1 308.8L434.1 287.6H434L429 280.9V280L434.4 287.3L497.6 308.5ZM434.6 351.1L437.3 354.7H436.7L434.2 351.3L429.2 349.6V349.2L434.6 351.1ZM442.5 345.8L449.2 354.8H448.6L442.2 346.1L429.3 341.8V341.4L442.5 345.8ZM458.3 207.6L489.9 250.1L552.9 271.3H553L584.6 313.8L647.6 335H647.7L662.2 354.6H661.6L647.3 335.3L584.3 314.1H584.2L552.6 271.6L489.6 250.4H489.5L457.9 207.9L429.2 198.2V197.8L458.3 207.6ZM450.4 340.5L461 354.8H460.4L450 340.8L429.2 333.8V333.4L450.4 340.5ZM505.5 303.2L537.1 345.7L563.7 354.7H562.4L536.7 346.1H536.6L505 303.6L442 282.4H441.9L429 265.1V264.2L442.5 282L505.5 303.2ZM481.9 191.7L513.5 234.2L576.5 255.4H576.6L608.2 297.9L671.2 319.1H671.3L697.7 354.6H697.1L670.9 319.4L607.9 298.2H607.8L576.2 255.7L513.2 234.5H513.1L481.5 192L429.2 174.4V174L481.9 191.7ZM466.2 202.3L497.8 244.8L560.8 266H560.9L592.4 308.6L655.4 329.8H655.5L674 354.7H673.4L655.1 330.1L592.1 308.9H592L560.4 266.4L497.4 245.2H497.3L465.7 202.7L429.1 190.4V190L466.2 202.3ZM474.1 197L505.7 239.5L568.7 260.7H568.8L600.4 303.2L663.4 324.4H663.5L685.9 354.6H685.3L663.1 324.7L600.1 303.5H600L568.4 261L505.4 239.8H505.3L473.7 197.3L429.3 182.3V181.9L474.1 197ZM489.8 186.4L521.4 228.9L584.4 250.1H584.5L616.1 292.6L679.1 313.8H679.2L709.5 354.6H708.9L678.8 314L615.8 292.8H615.7L584.1 250.3L521.1 229.1H521L489.4 186.6L429.2 166.3V165.9L489.8 186.4ZM513.4 297.9L545 340.4L587.4 354.7H586.1L544.6 340.7H544.5L512.9 298.2L449.9 277H449.8L429 249V248.1L450.4 276.7L513.4 297.9ZM521.3 292.6L552.9 335.1L611.1 354.7H609.8L552.6 335.4H552.5L520.9 292.9L457.9 271.7H457.8L429.1 233.1V232.2L458.2 271.4L521.3 292.6ZM481.9 319.2L508.3 354.7H507.7L481.5 319.5L429.2 301.9V301.5L481.9 319.2ZM923.4 149.4L860.4 128.2H860.3L828.7 85.7L765.7 64.5H765.6L734 22L671 0.8H670.9L668.2 -2.8H668.8L671.3 0.6L734.3 21.8H734.4L766 64.3L829 85.5H829.1L860.7 128L923.7 149.2H923.8L955.4 191.7L960.4 193.4V193.8L955 192L923.4 149.4ZM939.2 202.6L907.6 160.1L844.6 138.9H844.5L812.9 96.4L749.9 75.2H749.8L718.2 32.7L655.2 11.5H655.1L644.5 -3H645.1L655.5 11L718.5 32.2H718.6L750.2 74.7L813.2 95.9H813.3L844.9 138.4L907.9 159.6H908L939.6 202.1L960.4 209.1V209.5L939.2 202.6ZM884.1 239.8L852.5 197.3L789.5 176.1H789.4L757.8 133.6L694.8 112.4H694.7L663.1 69.9L600.1 48.7H600L568.3 6L541.7 -3H543L568.7 5.6H568.8L600.4 48.1L663.4 69.3H663.5L695 112L758 133.2H758.1L789.7 175.7L852.7 196.9H852.8L884.4 239.5L947.4 260.7H947.5L960.4 278.1V279L947.1 261L884.1 239.8ZM891.9 234.5L860.3 192L797.3 170.8H797.2L765.6 128.3L702.6 107.1H702.5L670.9 64.6L607.9 43.4H607.8L576.2 0.9L565.4 -3H566.7L576.6 0.3H576.7L608.3 42.8L671.3 64H671.4L703 106.5L766 127.7H766.1L797.7 170.2L860.7 191.4H860.8L892.4 233.9L955.4 255.1H955.5L960.5 261.8V262.7L955.1 255.4L891.9 234.5ZM944.2 -3H945.4L955.3 0.3L955.4 0.4L960.4 7.1V8L955 0.7L944.2 -3ZM915.5 218.5L884 176L821 154.8H820.9L789.3 112.3L726.3 91.1H726.2L694.6 48.6L631.6 27.4H631.5L609 -3H609.6L631.8 26.9L694.8 48.1H694.9L726.5 90.6L789.5 111.8H789.6L821.2 154.3L884.2 175.5H884.3L915.9 218L960.4 233.2V233.6L915.5 218.5ZM923.4 213.2L891.8 170.7L828.8 149.5H828.7L797.1 107L734.1 85.8H734L702.4 43.3L639.4 22.1H639.3L620.9 -3H621.5L639.8 21.6L702.8 42.8H702.9L734.5 85.3L797.5 106.5H797.6L829.2 149L892.2 170.2H892.3L923.9 212.7L960.4 225.2V225.6L923.4 213.2ZM931.3 207.9L899.7 165.4L836.7 144.2H836.6L805 101.7L742 80.5H741.9L710.4 37.8L647.4 16.6H647.3L632.7 -3H633.3L647.6 16.3L710.6 37.5H710.7L742.4 80.1L805.4 101.3H805.5L837.1 143.8L900.1 165H900.2L931.8 207.5L960.4 217.3V217.7L931.3 207.9ZM939.2 330.1L907.6 287.6L844.6 266.4H844.5L812.9 223.9L749.9 202.7H749.8L718.2 160.2L655.2 139H655.1L623.5 96.5L560.5 75.3H560.4L528.8 32.8L465.8 11.6H465.7L455.1 -3H455.7L466.1 11L529.1 32.2H529.2L560.8 74.7L623.8 95.9H623.9L655.5 138.4L718.5 159.6H718.6L750.2 202.1L813.2 223.3H813.3L844.9 265.8L907.9 287H908L939.6 329.5L960.4 336.5V336.9L939.2 330.1ZM947.1 324.8L915.5 282.3L852.5 261.1H852.4L820.8 218.6L757.8 197.4H757.7L726.1 154.9L663.1 133.7H663L631.5 91L568.5 69.8H568.4L536.8 27.3L473.8 6.1H473.7L467 -2.9H467.6L474 5.8L537 27H537.1L568.7 69.5L631.7 90.7H631.8L663.4 133.2L726.4 154.4H726.5L758.1 197L821.1 218.2H821.2L852.8 260.7L915.8 281.9H915.9L947.5 324.4L960.4 328.9V329.3L947.1 324.8ZM923.4 277L860.4 255.8H860.3L828.7 213.3L765.7 192.1H765.6L734 149.6L671 128.4H670.9L639.3 85.9L576.3 64.7H576.2L544.6 22.2L481.6 1H481.5L478.8 -2.6H479.4L481.9 0.8L544.9 22H545L576.6 64.5L639.6 85.7H639.7L671.3 128.2L734.3 149.4H734.4L766 191.9L829 213.1H829.1L860.7 255.6L923.7 276.8H923.8L955.4 319.2L960.4 320.9V321.3L955 319.5L923.4 277ZM876.2 245.1L844.6 202.6L781.6 181.4H781.5L749.9 138.9L686.9 117.7H686.8L655.1 75L592.1 53.8H592L560.4 11.3L518 -3H519.3L560.8 11H560.9L592.4 53.5L655.4 74.7H655.5L687.1 117.2L750.1 138.4H750.2L781.8 181L844.8 202.2H844.9L876.5 244.7L939.5 265.9H939.6L960.4 294V294.9L939.2 266.4L876.2 245.1ZM923.4 340.7L891.8 298.2L828.8 277H828.7L797.1 234.5L734.1 213.3H734L702.4 170.8L639.4 149.6H639.3L607.7 107.1L544.7 85.9H544.6L513 43.4L450 22.2H449.9L431.5 -3H432.1L450.4 21.6L513.4 42.8H513.5L545.1 85.3L608.1 106.5H608.2L639.8 149L702.8 170.2H702.9L734.5 212.7L797.5 233.9H797.6L829.2 276.4L892.2 297.6H892.3L923.9 340.1L960.4 352.8V353.2L923.4 340.7ZM868.3 250.4L836.7 207.9L773.7 186.7H773.6L742 144.2L679 123H678.9L647.3 80.5L584.3 59.3H584.2L552.6 16.8L494.4 -3H495.7L552.9 16.3H553L584.6 58.8L647.6 80H647.7L679.3 122.5L742.3 143.7H742.4L774 186.2L837 207.4H837.1L868.7 249.9L931.7 271.1H931.8L960.4 310V310.9L931.3 271.7L868.3 250.4ZM907.6 223.8L876 181.3L813 160.1H812.9L781.3 117.6L718.3 96.4H718.2L686.6 53.9L623.6 32.7H623.5L597.2 -3H597.8L624 32.2L687 53.4H687.1L718.7 96L781.7 117.2H781.8L813.4 159.8L876.4 181H876.5L908.1 223.5L960.4 241.2V241.6L907.6 223.8ZM931.3 335.4L899.7 292.9L836.7 271.7H836.6L805 229.2L742 208H741.9L710.3 165.5L647.3 144.3H647.2L615.6 101.8L552.6 80.6H552.5L520.9 38.1L457.9 16.9H457.8L443.3 -3H443.9L458.2 16.3L521.2 37.5H521.3L552.9 80L615.9 101.2H616L647.6 143.7L710.6 164.9H710.7L742.4 207.6L805.4 228.8H805.5L837.1 271.3L900.1 292.5H900.2L931.8 335L960.4 344.8V345.2L931.3 335.4ZM947.1 197.3L915.5 154.8L852.5 133.6H852.4L820.8 91L757.8 69.8H757.7L726.1 27.3L663.1 6.1H663L656.3 -2.9H656.9L663.4 5.7L726.4 26.9H726.5L758.1 69.4L821.1 90.6H821.2L852.8 133.1L915.8 154.3H915.9L947.5 197L960.4 201.3V201.7L947.1 197.3ZM931.3 80.4L899.7 37.9L836.7 16.7H836.6L822.1 -3H822.7L837 16.3L900 37.5H900.1L931.7 80.1L960.4 89.7V90.1L931.3 80.4ZM915.5 91L883.9 48.5L820.9 27.3H820.8L798.4 -3H799L821.2 26.9L884.2 48.1H884.3L916 90.7L960.4 105.7V106.1L915.5 91ZM907.6 96.3L876 53.8L813 32.6H812.9L786.6 -3H787.2L813.4 32.2L876.4 53.5H876.5L908.1 96L960.4 113.6V114L907.6 96.3ZM923.4 85.7L891.8 43.2L828.8 22H828.7L810.2 -3H810.8L829.1 21.6L892.1 42.8H892.2L923.8 85.4L960.4 97.7V98.1L923.4 85.7ZM899.8 101.6L868.2 59.1L805.2 37.9H805.1L774.7 -3H775.4L805.5 37.6L868.5 58.8H868.6L900.2 101.3L960.4 121.6V122L899.8 101.6ZM920.5 -3H921.8L947.4 5.6H947.5L960.4 23V23.9L947.1 6L920.5 -3ZM873.1 -3H874.4L931.7 16.3H931.8L960.4 54.9V55.8L931.3 16.6L873.1 -3ZM896.8 -3H898.1L939.5 11H939.6L960.4 39V39.9L939.2 11.4L896.8 -3ZM891.9 107L860.3 64.5L797.3 43.3H797.2L765.6 0.8L754.8 -3H756.1L766 0.3H766.1L797.7 42.8L860.7 64H860.8L892.4 106.5L955.4 127.7H955.5L960.5 134.4V135.3L955.1 128L891.9 107ZM939.2 75L907.6 32.5L844.6 11.3H844.5L833.9 -3H834.5L844.9 11L907.9 32.2H908L939.6 74.8L960.4 81.8V82.2L939.2 75ZM868.3 122.9L836.7 80.4L773.7 59.2H773.6L742 16.7L683.8 -3H685.1L742.3 16.3H742.4L774 58.8L837 80H837.1L868.7 122.5L931.7 143.7H931.8L960.4 182.4V183.3L931.3 144.1L868.3 122.9ZM884.1 112.3L852.4 69.7L789.4 48.5H789.3L757.7 6L731.1 -3H732.4L758.1 5.6H758.2L789.8 48.1L852.8 69.3H852.9L884.4 112L947.4 133.2H947.5L960.4 150.6V151.5L947.1 133.6L884.1 112.3ZM876.2 117.6L844.5 75L781.5 53.8H781.4L749.8 11.3L707.4 -3H708.7L750.2 11H750.3L781.9 53.5L844.9 74.7H845L876.6 117.2L939.6 138.4H939.7L960.4 166.5V167.4L939.2 138.9L876.2 117.6ZM947.1 69.7L915.5 27.2L852.5 6H852.4L845.7 -3H846.4L852.8 5.7L915.8 26.9H915.9L947.5 69.4L960.4 73.8V74.2L947.1 69.7ZM923.4 21.9L860.4 0.7H860.3L857.6 -2.9H858.2L860.7 0.5L923.7 21.7H923.8L955.4 64.1L960.4 65.8V66.2L955 64.4L923.4 21.9ZM899.8 229.2L868.2 186.7L805.2 165.5H805.1L773.5 123L710.5 101.8H710.4L678.8 59.3L615.8 38.1H615.7L585.3 -3H585.9L616 37.6L679 58.8H679.1L710.7 101.3L773.7 122.5H773.8L805.4 165L868.4 186.2H868.5L900.1 228.7L960.4 249.1V249.5L899.8 229.2Z" fill="#06E36F"></path><path d="M1575.4 170.4L1607 212.9L1670 234.1H1670.1L1701.7 276.6L1764.7 297.8H1764.8L1796.4 340.3L1838.8 354.6H1837.5L1796 340.6H1795.9L1764.3 298.1L1701.3 276.9H1701.2L1669.6 234.4L1606.6 213.2H1606.5L1574.9 170.7L1511.9 149.5H1511.8L1491 121.5V120.6L1512.4 149.2L1575.4 170.4ZM1583.3 165.1L1614.9 207.6L1677.9 228.8H1678L1709.6 271.3L1772.6 292.5H1772.7L1804.4 335.1L1862.6 354.7H1861.3L1804.1 335.4H1804L1772.4 292.9L1709.4 271.7H1709.3L1677.7 229.2L1614.7 208H1614.6L1583 165.5L1520 144.3H1519.9L1491.2 105.7V104.8L1520.3 144L1583.3 165.1ZM1551.8 58.8L1583.4 101.3L1646.4 122.5H1646.5L1678.1 165L1741.1 186.2H1741.2L1772.8 228.7L1835.8 249.9H1835.9L1867.5 292.4L1930.5 313.6H1930.6L1960.9 354.4H1960.3L1930.2 313.8L1867.2 292.6H1867.1L1835.5 250.1L1772.5 228.9H1772.4L1740.8 186.4L1677.8 165.2H1677.7L1646.1 122.7L1583.1 101.5H1583L1551.4 59.1L1491.2 38.8V38.4L1551.8 58.8ZM1543.9 64.1L1575.5 106.6L1638.5 127.8H1638.6L1670.2 170.3L1733.2 191.5H1733.3L1764.9 234L1827.9 255.2H1828L1859.6 297.7L1922.6 318.9H1922.7L1949.1 354.4H1948.5L1922.3 319.2L1859.3 298H1859.2L1827.6 255.5L1764.6 234.3H1764.5L1732.9 191.8L1669.9 170.6H1669.8L1638.2 128.1L1575.2 106.9H1575.1L1543.5 64.4L1491.2 46.8V46.4L1543.9 64.1ZM1504.5 218.2L1536.1 260.7L1599.1 281.9H1599.2L1630.8 324.4L1693.8 345.6H1693.9L1700.6 354.6H1700L1693.6 345.9L1630.6 324.7H1630.5L1598.9 282.2L1535.9 261H1535.8L1504.2 218.5L1491.3 214.2V213.8L1504.5 218.2ZM1496.6 223.6L1528.2 266.1L1591.2 287.3H1591.3L1622.9 329.8L1685.9 351H1686L1688.7 354.6H1688.1L1685.6 351.2L1622.6 330H1622.5L1590.9 287.5L1527.9 266.3H1527.8L1496.2 223.8L1491.2 222.1V221.7L1496.6 223.6ZM1559.6 181L1591.2 223.5L1654.2 244.7H1654.3L1685.9 287.2L1748.9 308.4H1749L1780.6 350.9L1791.4 354.5H1790.1L1780.2 351.2H1780.1L1748.5 308.7L1685.5 287.5H1685.4L1653.8 245L1590.8 223.8H1590.7L1559.1 181.3L1496.1 160.1H1496L1491 153.4V152.5L1496.4 159.8L1559.6 181ZM1567.5 175.7L1599.1 218.2L1662.1 239.4H1662.2L1693.9 282L1756.9 303.2H1757L1788.6 345.7L1815.2 354.7H1813.9L1788.2 346.1H1788.1L1756.5 303.6L1693.5 282.4H1693.4L1661.8 239.9L1598.8 218.7H1598.7L1567.1 176.2L1504.1 155H1504L1491.1 137.7V136.8L1504.4 154.7L1567.5 175.7ZM1512.4 85.4L1544 127.9L1607 149.1H1607.1L1638.7 191.6L1701.7 212.8H1701.8L1733.4 255.3L1796.4 276.5H1796.5L1828.1 319L1891.1 340.2H1891.2L1901.8 354.5H1901.2L1890.8 340.5L1827.8 319.3H1827.7L1796.1 276.8L1733.1 255.6H1733L1701.4 213.1L1638.4 191.9H1638.3L1606.7 149.4L1543.7 128.2H1543.6L1512 85.7L1491.2 78.7V78.3L1512.4 85.4ZM1496.6 96L1528.2 138.5L1591.2 159.7H1591.3L1622.9 202.2L1685.9 223.4H1686L1717.6 265.9L1780.6 287.1H1780.7L1812.3 329.6L1875.3 350.8H1875.4L1878.1 354.4H1877.5L1875 351L1812 329.8H1811.9L1780.3 287.3L1717.3 266.1H1717.2L1685.6 223.6L1622.6 202.4H1622.5L1590.9 159.9L1527.9 138.7H1527.8L1496.2 96.2L1491.2 94.5V94.1L1496.6 96ZM1504.5 90.7L1536.1 133.2L1599.1 154.4H1599.2L1630.7 197L1693.7 218.2H1693.8L1725.4 260.8L1788.4 282H1788.5L1820.1 324.5L1883.1 345.7H1883.2L1889.9 354.7H1889.3L1882.9 346L1819.9 324.8H1819.8L1788.2 282.3L1725.2 261.1H1725.1L1693.5 218.6L1630.5 197.4H1630.4L1598.8 154.9L1535.8 133.7H1535.7L1504.1 91L1491.2 86.7V86.3L1504.5 90.7ZM1536.1 69.4L1567.6 112L1630.6 133.2H1630.7L1662.3 175.7L1725.4 197H1725.5L1757.1 239.5L1820.1 260.7H1820.2L1851.8 303.2L1914.8 324.4H1914.9L1937.3 354.6H1936.7L1914.5 324.7L1851.5 303.5H1851.4L1819.8 261L1756.8 239.8H1756.7L1725.1 197.3L1662.1 176.1H1662L1630.4 133.6L1567.4 112.4H1567.3L1535.7 69.9L1491.3 54.9V54.5L1536.1 69.4ZM1559.6 53.5L1591.3 96L1654.3 117.2H1654.4L1686 159.7L1749 180.9H1749.1L1780.7 223.4L1843.7 244.6H1843.8L1875.4 287.3L1938.4 308.5H1938.5L1970.1 351L1980.9 354.6H1979.6L1969.7 351.3H1969.6L1938 308.8L1875 287.6H1874.9L1843.3 245.1L1780.3 223.9H1780.2L1748.6 181.4L1685.6 160.2H1685.5L1653.9 117.7L1590.9 96.5H1590.8L1559.2 54L1496.2 32.8H1496.1L1491.1 26.1V25L1496.5 32.3L1559.6 53.5ZM1528.2 74.8L1559.8 117.3L1622.8 138.5H1622.9L1654.4 181L1717.4 202.2H1717.5L1749.1 244.7L1812.1 265.9H1812.2L1843.8 308.4L1906.8 329.6H1906.9L1925.4 354.7H1924.8L1906.5 330.1L1843.5 308.9H1843.4L1811.8 266.4L1748.8 245.2H1748.7L1717.1 202.7L1654.1 181.5H1654L1622.4 139L1559.4 117.8H1559.3L1527.7 75L1491.1 62.7V62.3L1528.2 74.8ZM1512.4 212.9L1544 255.4L1607 276.6H1607.1L1638.7 319.1L1701.7 340.3H1701.8L1712.4 354.7H1711.8L1701.4 340.7L1638.4 319.5H1638.3L1606.7 277L1543.7 255.8H1543.6L1512 213.3L1491.2 206.3V205.9L1512.4 212.9ZM1504.5 26.9L1567.5 48.1H1567.6L1599.2 90.6L1662.2 111.8H1662.3L1693.9 154.3L1756.9 175.5H1757L1788.6 218L1851.6 239.2H1851.7L1883.3 282L1946.3 303.2H1946.4L1978 345.7L2004.6 354.7H2003.3L1977.6 346.1H1977.5L1945.9 303.6L1882.9 282.4H1882.8L1851.2 239.9L1788.2 218.7H1788.1L1756.5 176.2L1693.5 155H1693.4L1661.8 112.5L1598.8 91.3H1598.7L1567.1 48.8L1504.1 27.6H1504L1491.1 10.3V9L1504.5 26.9ZM1520.3 80.1L1551.9 122.6L1614.9 143.8H1615L1646.6 186.3L1709.6 207.5H1709.7L1741.3 250L1804.3 271.2H1804.4L1836 313.7L1899 334.9H1899.1L1913.6 354.5H1913L1898.7 335.2L1835.7 314H1835.6L1804 271.5L1741 250.3H1740.9L1709.3 207.8L1646.3 186.6H1646.2L1614.6 144.1L1551.6 122.9H1551.5L1519.9 80.4L1491.2 70.7V70.3L1520.3 80.1ZM1536.1 324.5L1558.5 354.7H1557.9L1535.7 324.8L1491.3 309.8V309.4L1536.1 324.5ZM1528.2 329.8L1546.7 354.7H1546.1L1527.8 330.1L1491.2 317.8V317.4L1528.2 329.8ZM1551.8 313.9L1582.1 354.7H1581.5L1551.4 314.1L1491.2 293.8V293.4L1551.8 313.9ZM1520.3 335.1L1534.8 354.7H1534.2L1519.9 335.4L1491.2 325.7V325.3L1520.3 335.1ZM1559.6 308.5L1591.2 351L1602 354.6H1600.7L1590.8 351.3H1590.7L1559.1 308.8L1496.1 287.6H1496L1491 280.9V280L1496.4 287.3L1559.6 308.5ZM1496.6 351.1L1499.3 354.7H1498.7L1496.2 351.3L1491.2 349.6V349.2L1496.6 351.1ZM1504.5 345.8L1511.2 354.8H1510.6L1504.2 346.1L1491.3 341.8V341.4L1504.5 345.8ZM1520.3 207.6L1551.9 250.1L1614.9 271.3H1615L1646.6 313.8L1709.6 335H1709.7L1724.2 354.6H1723.6L1709.3 335.3L1646.3 314.1H1646.2L1614.6 271.6L1551.6 250.4H1551.5L1519.9 207.9L1491.2 198.2V197.8L1520.3 207.6ZM1512.4 340.5L1523 354.8H1522.4L1512 340.8L1491.2 333.8V333.4L1512.4 340.5ZM1567.5 303.2L1599.1 345.7L1625.7 354.7H1624.4L1598.7 346.1H1598.6L1567 303.6L1504 282.4H1503.9L1491 265.1V264.2L1504.5 282L1567.5 303.2ZM1543.9 191.7L1575.5 234.2L1638.5 255.4H1638.6L1670.2 297.9L1733.2 319.1H1733.3L1759.7 354.6H1759.1L1732.9 319.4L1669.9 298.2H1669.8L1638.2 255.7L1575.2 234.5H1575.1L1543.5 192L1491.2 174.4V174L1543.9 191.7ZM1528.2 202.3L1559.8 244.8L1622.8 266H1622.9L1654.4 308.6L1717.4 329.8H1717.5L1736 354.7H1735.4L1717.1 330.1L1654.1 308.9H1654L1622.4 266.4L1559.4 245.2H1559.3L1527.7 202.7L1491.1 190.4V190L1528.2 202.3ZM1536.1 197L1567.7 239.5L1630.7 260.7H1630.8L1662.4 303.2L1725.4 324.4H1725.5L1747.9 354.6H1747.3L1725.1 324.7L1662.1 303.5H1662L1630.4 261L1567.4 239.8H1567.3L1535.7 197.3L1491.3 182.3V181.9L1536.1 197ZM1551.8 186.4L1583.4 228.9L1646.4 250.1H1646.5L1678.1 292.6L1741.1 313.8H1741.2L1771.5 354.6H1770.9L1740.8 314L1677.8 292.8H1677.7L1646.1 250.3L1583.1 229.1H1583L1551.4 186.6L1491.2 166.3V165.9L1551.8 186.4ZM1575.4 297.9L1607 340.4L1649.4 354.7H1648.1L1606.6 340.7H1606.5L1574.9 298.2L1511.9 277H1511.8L1491 249V248.1L1512.4 276.7L1575.4 297.9ZM1583.3 292.6L1614.9 335.1L1673.1 354.7H1671.8L1614.6 335.4H1614.5L1582.9 292.9L1519.9 271.7H1519.8L1491.1 233.1V232.2L1520.2 271.4L1583.3 292.6ZM1543.9 319.2L1570.3 354.7H1569.7L1543.5 319.5L1491.2 301.9V301.5L1543.9 319.2ZM1985.4 149.4L1922.4 128.2H1922.3L1890.7 85.7L1827.7 64.5H1827.6L1796 22L1733 0.8H1732.9L1730.2 -2.8H1730.8L1733.3 0.6L1796.3 21.8H1796.4L1828 64.3L1891 85.5H1891.1L1922.7 128L1985.7 149.2H1985.8L2017.4 191.7L2022.4 193.4V193.8L2017 192L1985.4 149.4ZM2001.2 202.6L1969.6 160.1L1906.6 138.9H1906.5L1874.9 96.4L1811.9 75.2H1811.8L1780.2 32.7L1717.2 11.5H1717.1L1706.5 -3H1707.1L1717.5 11L1780.5 32.2H1780.6L1812.2 74.7L1875.2 95.9H1875.3L1906.9 138.4L1969.9 159.6H1970L2001.6 202.1L2022.4 209.1V209.5L2001.2 202.6ZM1946.1 239.8L1914.5 197.3L1851.5 176.1H1851.4L1819.8 133.6L1756.8 112.4H1756.7L1725.1 69.9L1662.1 48.7H1662L1630.3 6L1603.7 -3H1605L1630.7 5.6H1630.8L1662.4 48.1L1725.4 69.3H1725.5L1757 112L1820 133.2H1820.1L1851.7 175.7L1914.7 196.9H1914.8L1946.4 239.5L2009.4 260.7H2009.5L2022.4 278.1V279L2009.1 261L1946.1 239.8ZM1953.9 234.5L1922.3 192L1859.3 170.8H1859.2L1827.6 128.3L1764.6 107.1H1764.5L1732.9 64.6L1669.9 43.4H1669.8L1638.2 0.9L1627.4 -3H1628.7L1638.6 0.3H1638.7L1670.3 42.8L1733.3 64H1733.4L1765 106.5L1828 127.7H1828.1L1859.7 170.2L1922.7 191.4H1922.8L1954.4 233.9L2017.4 255.1H2017.5L2022.5 261.8V262.7L2017.1 255.4L1953.9 234.5ZM2006.2 -3H2007.4L2017.3 0.3L2017.4 0.4L2022.4 7.1V8L2017 0.7L2006.2 -3ZM1977.5 218.5L1946 176L1883 154.8H1882.9L1851.3 112.3L1788.3 91.1H1788.2L1756.6 48.6L1693.6 27.4H1693.5L1671 -3H1671.6L1693.8 26.9L1756.8 48.1H1756.9L1788.5 90.6L1851.5 111.8H1851.6L1883.2 154.3L1946.2 175.5H1946.3L1977.9 218L2022.4 233.2V233.6L1977.5 218.5ZM1985.4 213.2L1953.8 170.7L1890.8 149.5H1890.7L1859.1 107L1796.1 85.8H1796L1764.4 43.3L1701.4 22.1H1701.3L1682.9 -3H1683.5L1701.8 21.6L1764.8 42.8H1764.9L1796.5 85.3L1859.5 106.5H1859.6L1891.2 149L1954.2 170.2H1954.3L1985.9 212.7L2022.4 225.2V225.6L1985.4 213.2ZM1993.3 207.9L1961.7 165.4L1898.7 144.2H1898.6L1867 101.7L1804 80.5H1803.9L1772.4 37.8L1709.4 16.6H1709.3L1694.7 -3H1695.3L1709.6 16.3L1772.6 37.5H1772.7L1804.4 80.1L1867.4 101.3H1867.5L1899.1 143.8L1962.1 165H1962.2L1993.8 207.5L2022.4 217.3V217.7L1993.3 207.9ZM2001.2 330.1L1969.6 287.6L1906.6 266.4H1906.5L1874.9 223.9L1811.9 202.7H1811.8L1780.2 160.2L1717.2 139H1717.1L1685.5 96.5L1622.5 75.3H1622.4L1590.8 32.8L1527.8 11.6H1527.7L1517.1 -3H1517.7L1528.1 11L1591.1 32.2H1591.2L1622.8 74.7L1685.8 95.9H1685.9L1717.5 138.4L1780.5 159.6H1780.6L1812.2 202.1L1875.2 223.3H1875.3L1906.9 265.8L1969.9 287H1970L2001.6 329.5L2022.4 336.5V336.9L2001.2 330.1ZM2009.1 324.8L1977.5 282.3L1914.5 261.1H1914.4L1882.8 218.6L1819.8 197.4H1819.7L1788.1 154.9L1725.1 133.7H1725L1693.5 91L1630.5 69.8H1630.4L1598.8 27.3L1535.8 6.1H1535.7L1529 -2.9H1529.6L1536 5.8L1599 27H1599.1L1630.7 69.5L1693.7 90.7H1693.8L1725.4 133.2L1788.4 154.4H1788.5L1820.1 197L1883.1 218.2H1883.2L1914.8 260.7L1977.8 281.9H1977.9L2009.5 324.4L2022.4 328.9V329.3L2009.1 324.8ZM1985.4 277L1922.4 255.8H1922.3L1890.7 213.3L1827.7 192.1H1827.6L1796 149.6L1733 128.4H1732.9L1701.3 85.9L1638.3 64.7H1638.2L1606.6 22.2L1543.6 1H1543.5L1540.8 -2.6H1541.4L1543.9 0.8L1606.9 22H1607L1638.6 64.5L1701.6 85.7H1701.7L1733.3 128.2L1796.3 149.4H1796.4L1828 191.9L1891 213.1H1891.1L1922.7 255.6L1985.7 276.8H1985.8L2017.4 319.2L2022.4 320.9V321.3L2017 319.5L1985.4 277ZM1938.2 245.1L1906.6 202.6L1843.6 181.4H1843.5L1811.9 138.9L1748.9 117.7H1748.8L1717.1 75L1654.1 53.8H1654L1622.4 11.3L1580 -3H1581.3L1622.8 11H1622.9L1654.4 53.5L1717.4 74.7H1717.5L1749.1 117.2L1812.1 138.4H1812.2L1843.8 181L1906.8 202.2H1906.9L1938.5 244.7L2001.5 265.9H2001.6L2022.4 294V294.9L2001.2 266.4L1938.2 245.1ZM1985.4 340.7L1953.8 298.2L1890.8 277H1890.7L1859.1 234.5L1796.1 213.3H1796L1764.4 170.8L1701.4 149.6H1701.3L1669.7 107.1L1606.7 85.9H1606.6L1575 43.4L1512 22.2H1511.9L1493.5 -3H1494.1L1512.4 21.6L1575.4 42.8H1575.5L1607.1 85.3L1670.1 106.5H1670.2L1701.8 149L1764.8 170.2H1764.9L1796.5 212.7L1859.5 233.9H1859.6L1891.2 276.4L1954.2 297.6H1954.3L1985.9 340.1L2022.4 352.8V353.2L1985.4 340.7ZM1930.3 250.4L1898.7 207.9L1835.7 186.7H1835.6L1804 144.2L1741 123H1740.9L1709.3 80.5L1646.3 59.3H1646.2L1614.6 16.8L1556.4 -3H1557.7L1614.9 16.3H1615L1646.6 58.8L1709.6 80H1709.7L1741.3 122.5L1804.3 143.7H1804.4L1836 186.2L1899 207.4H1899.1L1930.7 249.9L1993.7 271.1H1993.8L2022.4 310V310.9L1993.3 271.7L1930.3 250.4ZM1969.6 223.8L1938 181.3L1875 160.1H1874.9L1843.3 117.6L1780.3 96.4H1780.2L1748.6 53.9L1685.6 32.7H1685.5L1659.2 -3H1659.8L1686 32.2L1749 53.4H1749.1L1780.7 96L1843.7 117.2H1843.8L1875.4 159.8L1938.4 181H1938.5L1970.1 223.5L2022.4 241.2V241.6L1969.6 223.8ZM1993.3 335.4L1961.7 292.9L1898.7 271.7H1898.6L1867 229.2L1804 208H1803.9L1772.3 165.5L1709.3 144.3H1709.2L1677.6 101.8L1614.6 80.6H1614.5L1582.9 38.1L1519.9 16.9H1519.8L1505.3 -3H1505.9L1520.2 16.3L1583.2 37.5H1583.3L1614.9 80L1677.9 101.2H1678L1709.6 143.7L1772.6 164.9H1772.7L1804.4 207.6L1867.4 228.8H1867.5L1899.1 271.3L1962.1 292.5H1962.2L1993.8 335L2022.4 344.8V345.2L1993.3 335.4ZM2009.1 197.3L1977.5 154.8L1914.5 133.6H1914.4L1882.8 91L1819.8 69.8H1819.7L1788.1 27.3L1725.1 6.1H1725L1718.3 -2.9H1718.9L1725.4 5.7L1788.4 26.9H1788.5L1820.1 69.4L1883.1 90.6H1883.2L1914.8 133.1L1977.8 154.3H1977.9L2009.5 197L2022.4 201.3V201.7L2009.1 197.3ZM1993.3 80.4L1961.7 37.9L1898.7 16.7H1898.6L1884.1 -3H1884.7L1899 16.3L1962 37.5H1962.1L1993.7 80.1L2022.4 89.7V90.1L1993.3 80.4ZM1977.5 91L1945.9 48.5L1882.9 27.3H1882.8L1860.4 -3H1861L1883.2 26.9L1946.2 48.1H1946.3L1978 90.7L2022.4 105.7V106.1L1977.5 91ZM1969.6 96.3L1938 53.8L1875 32.6H1874.9L1848.6 -3H1849.2L1875.4 32.2L1938.4 53.5H1938.5L1970.1 96L2022.4 113.6V114L1969.6 96.3ZM1985.4 85.7L1953.8 43.2L1890.8 22H1890.7L1872.2 -3H1872.8L1891.1 21.6L1954.1 42.8H1954.2L1985.8 85.4L2022.4 97.7V98.1L1985.4 85.7ZM1961.8 101.6L1930.2 59.1L1867.2 37.9H1867.1L1836.7 -3H1837.4L1867.5 37.6L1930.5 58.8H1930.6L1962.2 101.3L2022.4 121.6V122L1961.8 101.6ZM1982.5 -3H1983.8L2009.4 5.6H2009.5L2022.4 23V23.9L2009.1 6L1982.5 -3ZM1935.1 -3H1936.4L1993.7 16.3H1993.8L2022.4 54.9V55.8L1993.3 16.6L1935.1 -3ZM1958.8 -3H1960.1L2001.5 11H2001.6L2022.4 39V39.9L2001.2 11.4L1958.8 -3ZM1953.9 107L1922.3 64.5L1859.3 43.3H1859.2L1827.6 0.8L1816.8 -3H1818.1L1828 0.3H1828.1L1859.7 42.8L1922.7 64H1922.8L1954.4 106.5L2017.4 127.7H2017.5L2022.5 134.4V135.3L2017.1 128L1953.9 107ZM2001.2 75L1969.6 32.5L1906.6 11.3H1906.5L1895.9 -3H1896.5L1906.9 11L1969.9 32.2H1970L2001.6 74.8L2022.4 81.8V82.2L2001.2 75ZM1930.3 122.9L1898.7 80.4L1835.7 59.2H1835.6L1804 16.7L1745.8 -3H1747.1L1804.3 16.3H1804.4L1836 58.8L1899 80H1899.1L1930.7 122.5L1993.7 143.7H1993.8L2022.4 182.4V183.3L1993.3 144.1L1930.3 122.9ZM1946.1 112.3L1914.4 69.7L1851.4 48.5H1851.3L1819.7 6L1793.1 -3H1794.4L1820.1 5.6H1820.2L1851.8 48.1L1914.8 69.3H1914.9L1946.4 112L2009.4 133.2H2009.5L2022.4 150.6V151.5L2009.1 133.6L1946.1 112.3ZM1938.2 117.6L1906.5 75L1843.5 53.8H1843.4L1811.8 11.3L1769.4 -3H1770.7L1812.2 11H1812.3L1843.9 53.5L1906.9 74.7H1907L1938.6 117.2L2001.6 138.4H2001.7L2022.4 166.5V167.4L2001.2 138.9L1938.2 117.6ZM2009.1 69.7L1977.5 27.2L1914.5 6H1914.4L1907.7 -3H1908.4L1914.8 5.7L1977.8 26.9H1977.9L2009.5 69.4L2022.4 73.8V74.2L2009.1 69.7ZM1985.4 21.9L1922.4 0.7H1922.3L1919.6 -2.9H1920.2L1922.7 0.5L1985.7 21.7H1985.8L2017.4 64.1L2022.4 65.8V66.2L2017 64.4L1985.4 21.9ZM1961.8 229.2L1930.2 186.7L1867.2 165.5H1867.1L1835.5 123L1772.5 101.8H1772.4L1740.8 59.3L1677.8 38.1H1677.7L1647.3 -3H1647.9L1678 37.6L1741 58.8H1741.1L1772.7 101.3L1835.7 122.5H1835.8L1867.4 165L1930.4 186.2H1930.5L1962.1 228.7L2022.4 249.1V249.5L1961.8 229.2Z" fill="#06E36F"></path></svg>