<svg width="40" height="40" viewBox="0 0 40 40" fill="none" xmlns="http://www.w3.org/2000/svg">
<path d="M20.0464 20C20.0464 16.3181 23.0312 13.3334 26.713 13.3334C30.3949 13.3334 33.3797 16.3182 33.3797 20C33.3797 23.682 30.3948 26.6667 26.713 26.6667C23.0311 26.6667 20.0464 23.6819 20.0464 20Z" fill="#00BCFF"/>
<path d="M6.71338 33.3334C6.71338 29.6515 9.69814 26.6667 13.38 26.6667L16.9328 24.791L20.0467 26.6667V33.3334C20.0467 37.0153 17.0619 40 13.38 40C9.69814 40 6.71338 37.0152 6.71338 33.3334Z" fill="#00CF7F"/>
<path d="M20.0466 0L16.4189 6.30234L20.0466 13.3333H26.6197C30.3017 13.3333 33.2864 10.3485 33.2864 6.66664C33.2864 2.98477 30.3016 0 26.6197 0H20.0466Z" fill="#FF7361"/>
<path d="M6.61963 6.66664C6.61963 10.3485 9.60439 13.3333 13.2863 13.3333L16.8228 14.6992L20.0464 13.3333V0H13.2862C9.60439 0 6.61963 2.98477 6.61963 6.66664Z" fill="#FF4D12"/>
<path d="M6.71338 20C6.71338 23.6819 9.69814 26.6666 13.38 26.6666H20.0467V13.3333H13.38C9.69814 13.3333 6.71338 16.3181 6.71338 20Z" fill="#B659FF"/>
</svg>
