<svg width="15" height="15" viewBox="0 0 15 15" fill="none" xmlns="http://www.w3.org/2000/svg">
<path d="M7.28135 4.30627C9.2501 4.30627 10.8751 5.93127 10.8751 7.90002C10.8751 9.90002 9.2501 11.4938 7.28135 11.4938C5.28135 11.4938 3.6876 9.90002 3.6876 7.90002C3.6876 5.93127 5.28135 4.30627 7.28135 4.30627ZM7.28135 10.2438C8.5626 10.2438 9.59385 9.21252 9.59385 7.90002C9.59385 6.61877 8.5626 5.58752 7.28135 5.58752C5.96885 5.58752 4.9376 6.61877 4.9376 7.90002C4.9376 9.21252 6.0001 10.2438 7.28135 10.2438ZM11.8438 4.18127C11.8438 4.65002 11.4688 5.02502 11.0001 5.02502C10.5313 5.02502 10.1563 4.65002 10.1563 4.18127C10.1563 3.71252 10.5313 3.33752 11.0001 3.33752C11.4688 3.33752 11.8438 3.71252 11.8438 4.18127ZM14.2188 5.02502C14.2813 6.18127 14.2813 9.65002 14.2188 10.8063C14.1563 11.9313 13.9063 12.9 13.0938 13.7438C12.2813 14.5563 11.2813 14.8063 10.1563 14.8688C9.0001 14.9313 5.53135 14.9313 4.3751 14.8688C3.2501 14.8063 2.28135 14.5563 1.4376 13.7438C0.625098 12.9 0.375098 11.9313 0.312598 10.8063C0.250098 9.65002 0.250098 6.18127 0.312598 5.02502C0.375098 3.90002 0.625098 2.90002 1.4376 2.08752C2.28135 1.27502 3.2501 1.02502 4.3751 0.962524C5.53135 0.900024 9.0001 0.900024 10.1563 0.962524C11.2813 1.02502 12.2813 1.27502 13.0938 2.08752C13.9063 2.90002 14.1563 3.90002 14.2188 5.02502ZM12.7188 12.025C13.0938 11.1188 13.0001 8.93127 13.0001 7.90002C13.0001 6.90002 13.0938 4.71252 12.7188 3.77502C12.4688 3.18127 12.0001 2.68127 11.4063 2.46252C10.4688 2.08752 8.28135 2.18127 7.28135 2.18127C6.2501 2.18127 4.0626 2.08752 3.15635 2.46252C2.53135 2.71252 2.0626 3.18127 1.8126 3.77502C1.4376 4.71252 1.53135 6.90002 1.53135 7.90002C1.53135 8.93127 1.4376 11.1188 1.8126 12.025C2.0626 12.65 2.53135 13.1188 3.15635 13.3688C4.0626 13.7438 6.2501 13.65 7.28135 13.65C8.28135 13.65 10.4688 13.7438 11.4063 13.3688C12.0001 13.1188 12.5001 12.65 12.7188 12.025Z" fill="#F9F9F9"/>
</svg>
