<svg width="15" height="15" viewBox="0 0 15 15" fill="none" xmlns="http://www.w3.org/2000/svg">
<path d="M3.40684 14.9H0.500586V5.55627H3.40684V14.9ZM1.93809 4.30627C1.03184 4.30627 0.281836 3.52502 0.281836 2.58752C0.281836 1.68127 1.03184 0.931274 1.93809 0.931274C2.87559 0.931274 3.62559 1.68127 3.62559 2.58752C3.62559 3.52502 2.87559 4.30627 1.93809 4.30627ZM14.2506 14.9H11.3756V10.3688C11.3756 9.27502 11.3443 7.90002 9.84434 7.90002C8.34434 7.90002 8.12559 9.05627 8.12559 10.275V14.9H5.21934V5.55627H8.00059V6.83752H8.03184C8.43809 6.11877 9.37559 5.33752 10.7818 5.33752C13.7193 5.33752 14.2818 7.27502 14.2818 9.77502V14.9H14.2506Z" fill="#F9F9F9"/>
</svg>
