<svg width="14" height="14" viewBox="0 0 14 14" fill="none" xmlns="http://www.w3.org/2000/svg">
<path d="M12.355 10.99C12.355 10.99 12.285 11.9875 11.375 11.9875C10.675 11.9875 10.185 11.445 9.73 10.745C11.0075 9.625 11.83 7.9625 11.83 6.09C11.83 2.73 9.1875 0 5.915 0C2.6425 0 0 2.73 0 6.09C0 9.45 2.6425 12.18 5.915 12.18C6.51 12.18 7.0875 12.0925 7.6125 11.9175C8.295 13.02 9.17 14 10.535 14C13.3 14 13.405 10.99 13.405 10.99H12.355ZM5.915 11.2C4.0075 11.2 2.4675 8.925 2.4675 6.1075C2.4675 3.29 4.0075 1.015 5.915 1.015C7.8225 1.015 9.3625 3.29 9.3625 6.1075C9.3625 7.2275 9.1175 8.26 8.6975 9.1C8.225 8.435 7.665 7.8575 6.86 7.6825C5.4425 7.3675 4.2175 7.9975 3.815 8.33L4.1825 9.0825C4.1825 9.0825 4.55 8.8725 5.46 9.0825C6.0375 9.2225 6.4925 10.01 7 10.9375C6.685 11.095 6.3 11.2 5.915 11.2Z" fill="#F9F9F9"/>
</svg>
