<svg width="17" height="14" viewBox="0 0 17 14" fill="none" xmlns="http://www.w3.org/2000/svg">
<path d="M14.6376 3.65002C14.6376 3.80627 14.6376 3.93127 14.6376 4.08752C14.6376 8.43127 11.3563 13.4 5.3251 13.4C3.4501 13.4 1.73135 12.8688 0.293848 11.9313C0.543848 11.9625 0.793848 11.9938 1.0751 11.9938C2.60635 11.9938 4.0126 11.4625 5.1376 10.5875C3.7001 10.5563 2.48135 9.61877 2.0751 8.30627C2.29385 8.33752 2.48135 8.36877 2.7001 8.36877C2.98135 8.36877 3.29385 8.30627 3.54385 8.24377C2.04385 7.93127 0.918848 6.61877 0.918848 5.02502V4.99377C1.35635 5.24377 1.8876 5.36877 2.41885 5.40002C1.5126 4.80627 0.950098 3.80627 0.950098 2.68127C0.950098 2.05627 1.10635 1.49377 1.3876 1.02502C3.0126 2.99377 5.4501 4.30627 8.16885 4.46252C8.10635 4.21252 8.0751 3.96252 8.0751 3.71252C8.0751 1.90002 9.54385 0.431274 11.3563 0.431274C12.2938 0.431274 13.1376 0.806274 13.7626 1.46252C14.4813 1.30627 15.2001 1.02502 15.8251 0.650024C15.5751 1.43127 15.0751 2.05627 14.3876 2.46252C15.0438 2.40002 15.7001 2.21252 16.2626 1.96252C15.8251 2.61877 15.2626 3.18127 14.6376 3.65002Z" fill="#F9F9F9"/>
</svg>
