<svg width="24" height="24" viewBox="0 0 24 24" fill="none" xmlns="http://www.w3.org/2000/svg">
<g clip-path="url(#clip0_259_181)">
<path fill-rule="evenodd" clip-rule="evenodd" d="M19.1503 3.26981C17.0453 1.16237 14.2459 0.00123047 11.2635 0C5.11802 0 0.116484 5.0014 0.114023 11.1485C0.11318 13.1136 0.626496 15.0317 1.60222 16.7226L0.0205078 22.5L5.93101 20.9495C7.55959 21.8379 9.39309 22.3061 11.2589 22.3066H11.2636C17.4084 22.3066 22.4105 17.3048 22.4128 11.1574C22.4141 8.17822 21.2554 5.37715 19.1503 3.26981ZM11.2635 20.4237H11.2596C9.59686 20.423 7.96606 19.9761 6.54304 19.132L6.20484 18.931L2.69744 19.8511L3.63358 16.4315L3.41315 16.0809C2.48552 14.6054 1.99566 12.9001 1.9965 11.1492C1.99843 6.03984 6.15566 1.88304 11.2672 1.88304C13.7424 1.88385 16.0692 2.84899 17.8187 4.60061C19.5683 6.35224 20.5313 8.68053 20.5304 11.1567C20.5283 16.2664 16.3713 20.4237 11.2635 20.4237ZM16.3466 13.4832C16.0681 13.3437 14.6983 12.67 14.4429 12.5769C14.1877 12.4839 14.0018 12.4376 13.8163 12.7164C13.6305 12.9951 13.0967 13.6227 12.9341 13.8085C12.7715 13.9945 12.6091 14.0178 12.3305 13.8783C12.0519 13.7389 11.1543 13.4446 10.0901 12.4955C9.26203 11.7568 8.70297 10.8446 8.54038 10.5658C8.37806 10.2867 8.53897 10.1505 8.66258 9.99724C8.96415 9.62275 9.26614 9.23013 9.35899 9.04433C9.45194 8.85835 9.40539 8.69565 9.33564 8.55625C9.26614 8.41686 8.70902 7.04563 8.47692 6.48766C8.25062 5.94467 8.02112 6.01797 7.85001 6.0095C7.6877 6.00138 7.50189 5.99973 7.31609 5.99973C7.1304 5.99973 6.82855 6.06934 6.57314 6.34841C6.31783 6.62734 5.59826 7.30121 5.59826 8.67244C5.59826 10.0437 6.59648 11.3683 6.73574 11.5543C6.87495 11.7402 8.70023 14.5541 11.4947 15.7607C12.1594 16.048 12.6782 16.2192 13.0829 16.3476C13.7504 16.5596 14.3575 16.5297 14.8376 16.458C15.3729 16.378 16.4857 15.784 16.718 15.1333C16.9501 14.4826 16.9501 13.9249 16.8803 13.8085C16.8109 13.6924 16.6251 13.6227 16.3466 13.4832Z" fill="#F9F9F9"/>
</g>
<defs>
<clipPath id="clip0_259_181">
<rect width="24" height="24" fill="white"/>
</clipPath>
</defs>
</svg>
